<svg width="50" height="50" viewBox="0 0 50 50" fill="none" xmlns="http://www.w3.org/2000/svg">
<path d="M28.431 34.1147L25.1993 31.1716C23.6144 29.7281 22.8219 29.0064 21.9238 28.733C21.1328 28.4923 20.2881 28.4923 19.4971 28.733C18.599 29.0064 17.8065 29.7281 16.2216 31.1716L8.71337 37.5002M28.431 34.1147L29.0892 33.5153C30.6742 32.0719 31.4667 31.3502 32.3648 31.0768C33.1557 30.836 34.0005 30.836 34.7914 31.0768C35.6896 31.3502 36.482 32.0719 38.067 33.5153L41.4609 36.7506M28.431 34.1147L35.7748 41.5814M18.333 41.6668H31.6663C35.1667 41.6668 36.9168 41.6668 38.2538 40.9856C39.4298 40.3864 40.3859 39.4303 40.9851 38.2543C41.6663 36.9173 41.6663 35.1672 41.6663 31.6668V18.3335C41.6663 14.8332 41.6663 13.083 40.9851 11.7461C40.3859 10.57 39.4298 9.61391 38.2538 9.01471C36.9168 8.3335 35.1667 8.3335 31.6663 8.3335H18.333C14.8327 8.3335 13.0825 8.3335 11.7456 9.01471C10.5696 9.61391 9.61343 10.57 9.01422 11.7461C8.33301 13.083 8.33301 14.8332 8.33301 18.3335V31.6668C8.33301 35.1672 8.33301 36.9173 9.01422 38.2543C9.61343 39.4303 10.5696 40.3864 11.7456 40.9856C13.0825 41.6668 14.8327 41.6668 18.333 41.6668ZM35.4163 18.7502C35.4163 21.0514 33.5509 22.9168 31.2497 22.9168C28.9485 22.9168 27.083 21.0514 27.083 18.7502C27.083 16.449 28.9485 14.5835 31.2497 14.5835C33.5509 14.5835 35.4163 16.449 35.4163 18.7502Z" stroke="#75839D" stroke-width="2" stroke-linecap="round" stroke-linejoin="round"/>
</svg>
