<svg width="24" height="24" viewBox="0 0 24 24" fill="none" xmlns="http://www.w3.org/2000/svg">
<path d="M19 17V18C19.5523 18 20 17.5523 20 17H19ZM17.908 3.21799L17.454 4.10899L17.454 4.10899L17.908 3.21799ZM18.782 4.09202L17.891 4.54601V4.54601L18.782 4.09202ZM6.09202 3.21799L5.63803 2.32698L5.63803 2.32698L6.09202 3.21799ZM5.21799 4.09202L4.32698 3.63803L4.32698 3.63803L5.21799 4.09202ZM19 22C19.5523 22 20 21.5523 20 21C20 20.4477 19.5523 20 19 20V22ZM19 17C19 16.4477 18.5523 16 18 16C17.4477 16 17 16.4477 17 17H19ZM17 21C17 21.5523 17.4477 22 18 22C18.5523 22 19 21.5523 19 21H17ZM14.0295 13.7412C14.1628 14.2772 14.7052 14.6037 15.2412 14.4705C15.7772 14.3372 16.1037 13.7948 15.9705 13.2588L14.0295 13.7412ZM8.02953 13.2588C7.89631 13.7948 8.2228 14.3372 8.75878 14.4705C9.29476 14.6037 9.83725 14.2772 9.97047 13.7412L8.02953 13.2588ZM12 6.5C11.4477 6.5 11 6.94772 11 7.5C11 8.05228 11.4477 8.5 12 8.5V6.5ZM12.01 8.5C12.5623 8.5 13.01 8.05228 13.01 7.5C13.01 6.94772 12.5623 6.5 12.01 6.5V8.5ZM8.2 4H15.8V2H8.2V4ZM18 6.2V17H20V6.2H18ZM6 19V6.2H4V19H6ZM15.8 4C16.3766 4 16.7488 4.00078 17.0322 4.02393C17.3038 4.04612 17.4045 4.0838 17.454 4.10899L18.362 2.32698C17.9836 2.13419 17.5904 2.06287 17.195 2.03057C16.8114 1.99922 16.3436 2 15.8 2V4ZM20 6.2C20 5.65645 20.0008 5.18864 19.9694 4.80497C19.9371 4.40963 19.8658 4.01641 19.673 3.63803L17.891 4.54601C17.9162 4.59545 17.9539 4.69617 17.9761 4.96784C17.9992 5.25117 18 5.62345 18 6.2H20ZM17.454 4.10899C17.6422 4.20487 17.7951 4.35785 17.891 4.54601L19.673 3.63803C19.3854 3.07354 18.9265 2.6146 18.362 2.32698L17.454 4.10899ZM8.2 2C7.65645 2 7.18864 1.99922 6.80497 2.03057C6.40963 2.06287 6.01641 2.13419 5.63803 2.32698L6.54601 4.10899C6.59545 4.0838 6.69617 4.04612 6.96784 4.02393C7.25117 4.00078 7.62345 4 8.2 4V2ZM6 6.2C6 5.62345 6.00078 5.25117 6.02393 4.96784C6.04612 4.69617 6.0838 4.59545 6.10899 4.54601L4.32698 3.63803C4.13419 4.01641 4.06287 4.40963 4.03057 4.80497C3.99922 5.18864 4 5.65645 4 6.2H6ZM5.63803 2.32698C5.07354 2.6146 4.6146 3.07354 4.32698 3.63803L6.10899 4.54601C6.20487 4.35785 6.35785 4.20487 6.54601 4.10899L5.63803 2.32698ZM7 18H19V16H7V18ZM19 20H7V22H19V20ZM7 20C6.44772 20 6 19.5523 6 19H4C4 20.6569 5.34315 22 7 22V20ZM7 16C5.34315 16 4 17.3431 4 19H6C6 18.4477 6.44772 18 7 18V16ZM17 17V21H19V17H17ZM12 7.5V9.5C13.1046 9.5 14 8.60457 14 7.5H12ZM12 7.5H10C10 8.60457 10.8954 9.5 12 9.5V7.5ZM12 7.5V5.5C10.8954 5.5 10 6.39543 10 7.5H12ZM12 7.5H14C14 6.39543 13.1046 5.5 12 5.5V7.5ZM12 12.5C13.145 12.5 13.8839 13.1554 14.0295 13.7412L15.9705 13.2588C15.5488 11.5624 13.817 10.5 12 10.5V12.5ZM9.97047 13.7412C10.1161 13.1554 10.855 12.5 12 12.5V10.5C10.183 10.5 8.45119 11.5624 8.02953 13.2588L9.97047 13.7412ZM12 8.5H12.01V6.5H12V8.5Z" fill="#757E8A"/>
</svg>
