<svg width="24" height="24" viewBox="0 0 24 24" fill="none" xmlns="http://www.w3.org/2000/svg">
<path d="M14.505 2.625C13.5658 2.62502 12.6392 2.84122 11.7969 3.25685C10.9546 3.67248 10.2194 4.27639 9.64796 5.02182C9.07657 5.76724 8.68442 6.63418 8.50186 7.55549C8.31931 8.47681 8.35126 9.42778 8.59524 10.3348L2.625 16.305V20.625H6.945V18.465H9.105V16.305H11.265L12.921 14.649C13.438 14.7901 13.9693 14.8621 14.505 14.865C16.1281 14.865 17.6848 14.2202 18.8325 13.0725C19.9802 11.9248 20.625 10.3681 20.625 8.745C20.625 7.12188 19.9802 5.56523 18.8325 4.41751C17.6848 3.26978 16.1281 2.625 14.505 2.625V2.625Z" stroke="#75839D" stroke-width="1.5" stroke-linecap="round" stroke-linejoin="round"/>
<path d="M15.585 8.38501C15.9826 8.38501 16.305 8.06265 16.305 7.66501C16.305 7.26736 15.9826 6.94501 15.585 6.94501C15.1873 6.94501 14.865 7.26736 14.865 7.66501C14.865 8.06265 15.1873 8.38501 15.585 8.38501Z" fill="#75839D" stroke="#75839D" stroke-width="1.5" stroke-linecap="round" stroke-linejoin="round"/>
</svg>
