<svg width="24" height="24" viewBox="0 0 24 24" fill="none" xmlns="http://www.w3.org/2000/svg">
<path d="M5.82787 11.9032C4.63717 11.4402 4.04183 11.2087 3.86801 10.8751C3.71734 10.5859 3.71714 10.2414 3.86747 9.952C4.04089 9.61819 4.63596 9.38597 5.82611 8.92152L17.6016 4.3262C18.676 3.90694 19.2131 3.69731 19.5564 3.81198C19.8545 3.91157 20.0884 4.1455 20.188 4.4436C20.3027 4.78686 20.0931 5.32404 19.6738 6.3984L15.0785 18.1739C14.614 19.364 14.3818 19.9591 14.048 20.1325C13.7586 20.2829 13.4141 20.2827 13.1249 20.132C12.7913 19.9582 12.5598 19.3628 12.0968 18.1721L10.5966 14.3147C10.5026 14.073 10.4556 13.9521 10.383 13.8504C10.3187 13.7602 10.2398 13.6813 10.1496 13.617C10.0479 13.5444 9.92703 13.4974 9.68533 13.4034L5.82787 11.9032Z" stroke="#131A29" stroke-width="2" stroke-linecap="round" stroke-linejoin="round"/>
</svg>
