<svg width="24" height="24" viewBox="0 0 24 24" fill="none" xmlns="http://www.w3.org/2000/svg">
<path d="M4 5C3.44772 5 3 5.44772 3 6C3 6.55228 3.44772 7 4 7V5ZM20 7C20.5523 7 21 6.55228 21 6C21 5.44772 20.5523 5 20 5V7ZM15.7294 5.18807L14.7807 5.5043L14.7807 5.5043L15.7294 5.18807ZM15.0513 6.31623C15.226 6.84017 15.7923 7.12333 16.3162 6.94868C16.8402 6.77404 17.1233 6.20772 16.9487 5.68377L15.0513 6.31623ZM7.05132 5.68377C6.87667 6.20772 7.15983 6.77404 7.68377 6.94868C8.20772 7.12333 8.77404 6.84017 8.94868 6.31623L7.05132 5.68377ZM8.27064 5.18807L7.32196 4.87184V4.87184L8.27064 5.18807ZM14.2905 3.13878L14.6565 2.20816V2.20816L14.2905 3.13878ZM15.0927 3.71698L14.3256 4.35849L15.0927 3.71698ZM9.70951 3.13878L10.0755 4.06939L9.70951 3.13878ZM8.90729 3.71698L9.6744 4.35849L8.90729 3.71698ZM19 6C19 5.44772 18.5523 5 18 5C17.4477 5 17 5.44772 17 6H19ZM7 6C7 5.44772 6.55228 5 6 5C5.44772 5 5 5.44772 5 6H7ZM7.63803 20.673L8.09202 19.782H8.09202L7.63803 20.673ZM6.32698 19.362L5.43597 19.816H5.43597L6.32698 19.362ZM17.673 19.362L16.782 18.908V18.908L17.673 19.362ZM16.362 20.673L15.908 19.782H15.908L16.362 20.673ZM15 10C15 9.44772 14.5523 9 14 9C13.4477 9 13 9.44772 13 10H15ZM13 17C13 17.5523 13.4477 18 14 18C14.5523 18 15 17.5523 15 17H13ZM11 10C11 9.44772 10.5523 9 10 9C9.44772 9 9 9.44772 9 10H11ZM9 17C9 17.5523 9.44772 18 10 18C10.5523 18 11 17.5523 11 17H9ZM4 7H20V5H4V7ZM11.3064 4H12.6936V2H11.3064V4ZM14.7807 5.5043L15.0513 6.31623L16.9487 5.68377L16.678 4.87184L14.7807 5.5043ZM8.94868 6.31623L9.21933 5.5043L7.32196 4.87184L7.05132 5.68377L8.94868 6.31623ZM12.6936 4C13.6083 4 13.7908 4.01681 13.9245 4.06939L14.6565 2.20816C14.0845 1.98319 13.4376 2 12.6936 2V4ZM16.678 4.87184C16.4427 4.16597 16.2541 3.54699 15.8598 3.07547L14.3256 4.35849C14.4178 4.4687 14.4914 4.63653 14.7807 5.5043L16.678 4.87184ZM13.9245 4.06939C14.0803 4.13066 14.2182 4.23007 14.3256 4.35849L15.8598 3.07547C15.5376 2.6902 15.1239 2.39198 14.6565 2.20816L13.9245 4.06939ZM11.3064 2C10.5624 2 9.91551 1.98319 9.3435 2.20816L10.0755 4.06939C10.2092 4.01681 10.3917 4 11.3064 4V2ZM9.21933 5.5043C9.50858 4.63654 9.58224 4.4687 9.6744 4.35849L8.14017 3.07547C7.74586 3.54699 7.55725 4.16597 7.32196 4.87184L9.21933 5.5043ZM9.3435 2.20816C8.87612 2.39198 8.46236 2.6902 8.14017 3.07547L9.6744 4.35849C9.7818 4.23007 9.91972 4.13066 10.0755 4.06939L9.3435 2.20816ZM17 6V16.2H19V6H17ZM13.2 20H10.8V22H13.2V20ZM7 16.2V6H5V16.2H7ZM10.8 20C9.94342 20 9.36113 19.9992 8.91104 19.9624C8.47262 19.9266 8.24842 19.8617 8.09202 19.782L7.18404 21.564C7.66937 21.8113 8.18608 21.9099 8.74817 21.9558C9.2986 22.0008 9.97642 22 10.8 22V20ZM5 16.2C5 17.0236 4.99922 17.7014 5.04419 18.2518C5.09012 18.8139 5.18868 19.3306 5.43597 19.816L7.21799 18.908C7.1383 18.7516 7.07337 18.5274 7.03755 18.089C7.00078 17.6389 7 17.0566 7 16.2H5ZM8.09202 19.782C7.71569 19.5903 7.40973 19.2843 7.21799 18.908L5.43597 19.816C5.81947 20.5686 6.43139 21.1805 7.18404 21.564L8.09202 19.782ZM17 16.2C17 17.0566 16.9992 17.6389 16.9624 18.089C16.9266 18.5274 16.8617 18.7516 16.782 18.908L18.564 19.816C18.8113 19.3306 18.9099 18.8139 18.9558 18.2518C19.0008 17.7014 19 17.0236 19 16.2H17ZM13.2 22C14.0236 22 14.7014 22.0008 15.2518 21.9558C15.8139 21.9099 16.3306 21.8113 16.816 21.564L15.908 19.782C15.7516 19.8617 15.5274 19.9266 15.089 19.9624C14.6389 19.9992 14.0566 20 13.2 20V22ZM16.782 18.908C16.5903 19.2843 16.2843 19.5903 15.908 19.782L16.816 21.564C17.5686 21.1805 18.1805 20.5686 18.564 19.816L16.782 18.908ZM13 10V17H15V10H13ZM9 10V17H11V10H9Z" fill="white"/>
</svg>
