<svg width="24" height="24" viewBox="0 0 24 24" fill="none" xmlns="http://www.w3.org/2000/svg">
<path d="M16.6725 16.6412L21 21M19 11C19 15.4183 15.4183 19 11 19C6.58172 19 3 15.4183 3 11C3 6.58172 6.58172 3 11 3C15.4183 3 19 6.58172 19 11Z" stroke="#757E8A" stroke-width="2" stroke-linecap="round" stroke-linejoin="round"/>
<path d="M14 14.5C13.7164 13.3589 12.481 12.5 11 12.5C9.519 12.5 8.28364 13.3589 8 14.5M11 8.5H11.01M12 8.5C12 9.05228 11.5523 9.5 11 9.5C10.4477 9.5 10 9.05228 10 8.5C10 7.94772 10.4477 7.5 11 7.5C11.5523 7.5 12 7.94772 12 8.5Z" stroke="#757E8A" stroke-width="2" stroke-linecap="round" stroke-linejoin="round"/>
</svg>
