<svg width="24" height="24" viewBox="0 0 24 24" fill="none" xmlns="http://www.w3.org/2000/svg">
<path d="M17 15L20 12M20 12L17 9M20 12L8 12M14 6.75L14 6C14 4.34315 12.6569 3 11 3L8.8 3C7.11984 3 6.27976 3 5.63803 3.32698C5.07354 3.6146 4.6146 4.07354 4.32698 4.63803C4 5.27976 4 6.11984 4 7.8L4 16.2C4 17.8802 4 18.7202 4.32698 19.362C4.6146 19.9265 5.07354 20.3854 5.63803 20.673C6.27976 21 7.11984 21 8.8 21L11 21C12.6569 21 14 19.6569 14 18L14 17.25" stroke="#757E8A" stroke-width="2" stroke-linecap="round" stroke-linejoin="round"/>
</svg>
