<svg width="30" height="30" viewBox="0 0 30 30" fill="none" xmlns="http://www.w3.org/2000/svg">
<path d="M28.125 15.9375V23.4375C28.125 23.9348 27.9275 24.4117 27.5758 24.7633C27.2242 25.115 26.7473 25.3125 26.25 25.3125H3.75C3.25272 25.3125 2.77581 25.115 2.42417 24.7633C2.07254 24.4117 1.875 23.9348 1.875 23.4375V15.9375C1.875 15.4402 2.07254 14.9633 2.42417 14.6117C2.77581 14.26 3.25272 14.0625 3.75 14.0625H9.375C9.62364 14.0625 9.8621 14.1613 10.0379 14.3371C10.2137 14.5129 10.3125 14.7514 10.3125 15C10.3125 15.2486 10.2137 15.4871 10.0379 15.6629C9.8621 15.8387 9.62364 15.9375 9.375 15.9375H3.75V23.4375H26.25V15.9375H20.625C20.3764 15.9375 20.1379 15.8387 19.9621 15.6629C19.7863 15.4871 19.6875 15.2486 19.6875 15C19.6875 14.7514 19.7863 14.5129 19.9621 14.3371C20.1379 14.1613 20.3764 14.0625 20.625 14.0625H26.25C26.7473 14.0625 27.2242 14.26 27.5758 14.6117C27.9275 14.9633 28.125 15.4402 28.125 15.9375ZM14.332 15.668C14.5112 15.8412 14.7507 15.9381 15 15.9381C15.2493 15.9381 15.4888 15.8412 15.668 15.668L21.293 10.043C21.4425 9.86082 21.5189 9.62957 21.5073 9.39421C21.4957 9.15885 21.3971 8.9362 21.2304 8.76957C21.0638 8.60295 20.8412 8.50425 20.6058 8.4927C20.3704 8.48114 20.1392 8.55754 19.957 8.70703L15.9375 12.7383V2.8125C15.9375 2.56386 15.8387 2.3254 15.6629 2.14959C15.4871 1.97377 15.2486 1.875 15 1.875C14.7514 1.875 14.5129 1.97377 14.3371 2.14959C14.1613 2.3254 14.0625 2.56386 14.0625 2.8125V12.7383L10.043 8.70703C9.86082 8.55754 9.62957 8.48114 9.39421 8.4927C9.15885 8.50425 8.9362 8.60295 8.76957 8.76957C8.60295 8.9362 8.50425 9.15885 8.4927 9.39421C8.48114 9.62957 8.55754 9.86082 8.70703 10.043L14.332 15.668ZM23.4375 19.6875C23.4375 19.4094 23.355 19.1375 23.2005 18.9062C23.046 18.675 22.8264 18.4947 22.5694 18.3883C22.3124 18.2819 22.0297 18.254 21.7569 18.3083C21.4841 18.3625 21.2335 18.4965 21.0369 18.6931C20.8402 18.8898 20.7063 19.1404 20.652 19.4132C20.5978 19.6859 20.6256 19.9687 20.732 20.2256C20.8385 20.4826 21.0187 20.7022 21.25 20.8568C21.4812 21.0113 21.7531 21.0938 22.0312 21.0938C22.4042 21.0938 22.7619 20.9456 23.0256 20.6819C23.2893 20.4181 23.4375 20.0605 23.4375 19.6875Z" fill="#365D96"/>
</svg>
