<svg width="24" height="24" viewBox="0 0 24 24" fill="none" xmlns="http://www.w3.org/2000/svg">
<path d="M15.4389 5.56122L18.2634 8.39355M2.98633 21.0081C3.11227 20.1265 3.18246 19.2094 3.47662 18.3642C3.64608 17.8774 3.87757 17.4144 4.16539 16.9867C4.48974 16.5047 4.90952 16.0849 5.74907 15.2454L17.4104 3.58969C18.1914 2.80865 19.4578 2.80864 20.2388 3.58969C21.0199 4.37074 21.0199 5.63707 20.2388 6.41812L8.39796 18.2533C7.68661 18.9647 7.33093 19.3204 6.92808 19.6084C6.57044 19.8641 6.18578 20.0797 5.78102 20.2514C4.89717 20.6262 3.9176 20.7838 2.98633 21.0081Z" stroke="white" stroke-width="2" stroke-linejoin="round"/>
</svg>
