<svg width="20" height="20" viewBox="0 0 20 20" fill="none" xmlns="http://www.w3.org/2000/svg">
<path d="M13.814 13.1668C13.2617 13.1668 12.814 13.6145 12.814 14.1668C12.814 14.7191 13.2617 15.1668 13.814 15.1668V13.1668ZM13.8222 15.1668C14.3745 15.1668 14.8222 14.7191 14.8222 14.1668C14.8222 13.6145 14.3745 13.1668 13.8222 13.1668V15.1668ZM12.6593 10.6668C12.107 10.6668 11.6593 11.1145 11.6593 11.6668C11.6593 12.2191 12.107 12.6668 12.6593 12.6668V10.6668ZM6.72119 12.6668C7.27347 12.6668 7.72119 12.2191 7.72119 11.6668C7.72119 11.1145 7.27347 10.6668 6.72119 10.6668V12.6668ZM3.28583 16.54L2.89975 17.4624H2.89975L3.28583 16.54ZM2.39314 15.638L1.46787 16.0173H1.46787L2.39314 15.638ZM16.9874 15.638L17.9126 16.0173L16.9874 15.638ZM16.0947 16.54L16.4808 17.4624L16.0947 16.54ZM16.9874 12.6957L17.9126 12.3164L16.9874 12.6957ZM16.0947 11.7937L15.7086 12.7162L16.0947 11.7937ZM2.39314 12.6957L1.46787 12.3164L2.39314 12.6957ZM3.28583 11.7937L2.89975 10.8712H2.89975L3.28583 11.7937ZM8.69026 12.5002C8.69026 13.0524 9.13797 13.5002 9.69026 13.5002C10.2425 13.5002 10.6903 13.0524 10.6903 12.5002H8.69026ZM9.69026 3.3335L10.401 2.63006C10.2132 2.44028 9.95727 2.3335 9.69026 2.3335C9.42325 2.3335 9.16732 2.44028 8.9795 2.63006L9.69026 3.3335ZM11.4537 6.53693C11.8422 6.92947 12.4754 6.93275 12.8679 6.54426C13.2605 6.15576 13.2637 5.5226 12.8752 5.13006L11.4537 6.53693ZM6.50527 5.13006C6.11677 5.5226 6.12006 6.15576 6.5126 6.54426C6.90514 6.93275 7.5383 6.92947 7.92679 6.53693L6.50527 5.13006ZM13.814 15.1668H13.8222V13.1668H13.814V15.1668ZM14.6387 15.6668H4.7418V17.6668H14.6387V15.6668ZM12.6593 12.6668H14.6387V10.6668H12.6593V12.6668ZM4.7418 12.6668H6.72119V10.6668H4.7418V12.6668ZM4.7418 15.6668C4.3437 15.6668 4.09572 15.6663 3.90806 15.6533C3.72958 15.641 3.68033 15.621 3.67191 15.6175L2.89975 17.4624C3.19447 17.5858 3.48892 17.6292 3.7705 17.6486C4.0429 17.6674 4.37135 17.6668 4.7418 17.6668V15.6668ZM1.26758 14.1668C1.26758 14.5416 1.26705 14.8722 1.28555 15.1461C1.30464 15.4288 1.34722 15.723 1.46787 16.0173L3.31841 15.2587C3.3135 15.2467 3.2933 15.1935 3.281 15.0114C3.26811 14.8205 3.26758 14.5687 3.26758 14.1668H1.26758ZM3.67191 15.6175C3.5144 15.5516 3.38606 15.4237 3.31841 15.2587L1.46787 16.0173C1.73504 16.669 2.24892 17.19 2.89975 17.4624L3.67191 15.6175ZM16.1129 14.1668C16.1129 14.5687 16.1124 14.8205 16.0995 15.0114C16.0872 15.1935 16.067 15.2467 16.0621 15.2587L17.9126 16.0173C18.0333 15.723 18.0759 15.4288 18.095 15.1461C18.1135 14.8722 18.1129 14.5416 18.1129 14.1668H16.1129ZM14.6387 17.6668C15.0092 17.6668 15.3376 17.6674 15.61 17.6486C15.8916 17.6292 16.186 17.5858 16.4808 17.4624L15.7086 15.6175C15.7002 15.621 15.6509 15.641 15.4725 15.6533C15.2848 15.6663 15.0368 15.6668 14.6387 15.6668V17.6668ZM16.0621 15.2587C15.9945 15.4237 15.8661 15.5516 15.7086 15.6175L16.4808 17.4624C17.1316 17.19 17.6455 16.669 17.9126 16.0173L16.0621 15.2587ZM18.1129 14.1668C18.1129 13.7921 18.1135 13.4615 18.095 13.1875C18.0759 12.9048 18.0333 12.6107 17.9126 12.3164L16.0621 13.075C16.067 13.087 16.0872 13.1401 16.0995 13.3223C16.1124 13.5132 16.1129 13.765 16.1129 14.1668H18.1129ZM14.6387 12.6668C15.0368 12.6668 15.2848 12.6674 15.4725 12.6803C15.6509 12.6926 15.7002 12.7126 15.7086 12.7162L16.4808 10.8712C16.186 10.7479 15.8916 10.7045 15.61 10.6851C15.3376 10.6663 15.0092 10.6668 14.6387 10.6668V12.6668ZM17.9126 12.3164C17.6455 11.6646 17.1316 11.1436 16.4808 10.8712L15.7086 12.7162C15.8661 12.7821 15.9945 12.91 16.0621 13.075L17.9126 12.3164ZM3.26758 14.1668C3.26758 13.765 3.26811 13.5132 3.281 13.3223C3.2933 13.1401 3.3135 13.087 3.31841 13.075L1.46787 12.3164C1.34722 12.6107 1.30464 12.9048 1.28555 13.1875C1.26705 13.4615 1.26758 13.7921 1.26758 14.1668H3.26758ZM4.7418 10.6668C4.37135 10.6668 4.0429 10.6663 3.7705 10.6851C3.48892 10.7045 3.19447 10.7479 2.89975 10.8712L3.67191 12.7162C3.68033 12.7126 3.72958 12.6926 3.90806 12.6803C4.09572 12.6674 4.3437 12.6668 4.7418 12.6668V10.6668ZM3.31841 13.075C3.38606 12.91 3.5144 12.7821 3.67191 12.7162L2.89975 10.8712C2.24892 11.1436 1.73504 11.6646 1.46787 12.3164L3.31841 13.075ZM10.6903 12.5002V3.3335H8.69026V12.5002H10.6903ZM12.8752 5.13006L10.401 2.63006L8.9795 4.03693L11.4537 6.53693L12.8752 5.13006ZM8.9795 2.63006L6.50527 5.13006L7.92679 6.53693L10.401 4.03693L8.9795 2.63006Z" fill="#365D96"/>
</svg>
