<svg width="24" height="27" viewBox="0 0 24 27" fill="none" xmlns="http://www.w3.org/2000/svg">
<path d="M8.25 11.8125C8.05109 11.8125 7.86032 11.9014 7.71967 12.0596C7.57902 12.2179 7.5 12.4325 7.5 12.6562C7.5 12.88 7.57902 13.0946 7.71967 13.2529C7.86032 13.4111 8.05109 13.5 8.25 13.5H15.75C15.9489 13.5 16.1397 13.4111 16.2803 13.2529C16.421 13.0946 16.5 12.88 16.5 12.6562C16.5 12.4325 16.421 12.2179 16.2803 12.0596C16.1397 11.9014 15.9489 11.8125 15.75 11.8125H8.25ZM7.5 16.0312C7.5 15.8075 7.57902 15.5929 7.71967 15.4346C7.86032 15.2764 8.05109 15.1875 8.25 15.1875H15.75C15.9489 15.1875 16.1397 15.2764 16.2803 15.4346C16.421 15.5929 16.5 15.8075 16.5 16.0312C16.5 16.255 16.421 16.4696 16.2803 16.6279C16.1397 16.7861 15.9489 16.875 15.75 16.875H8.25C8.05109 16.875 7.86032 16.7861 7.71967 16.6279C7.57902 16.4696 7.5 16.255 7.5 16.0312ZM7.5 19.4062C7.5 19.1825 7.57902 18.9679 7.71967 18.8096C7.86032 18.6514 8.05109 18.5625 8.25 18.5625H11.25C11.4489 18.5625 11.6397 18.6514 11.7803 18.8096C11.921 18.9679 12 19.1825 12 19.4062C12 19.63 11.921 19.8446 11.7803 20.0029C11.6397 20.1611 11.4489 20.25 11.25 20.25H8.25C8.05109 20.25 7.86032 20.1611 7.71967 20.0029C7.57902 19.8446 7.5 19.63 7.5 19.4062Z" fill="black"/>
<path d="M14.25 0H6C5.20435 0 4.44129 0.355579 3.87868 0.988515C3.31607 1.62145 3 2.47989 3 3.375V23.625C3 24.5201 3.31607 25.3785 3.87868 26.0115C4.44129 26.6444 5.20435 27 6 27H18C18.7956 27 19.5587 26.6444 20.1213 26.0115C20.6839 25.3785 21 24.5201 21 23.625V7.59375L14.25 0ZM14.25 1.6875V5.0625C14.25 5.73383 14.4871 6.37766 14.909 6.85236C15.331 7.32707 15.9033 7.59375 16.5 7.59375H19.5V23.625C19.5 24.0726 19.342 24.5018 19.0607 24.8182C18.7794 25.1347 18.3978 25.3125 18 25.3125H6C5.60218 25.3125 5.22064 25.1347 4.93934 24.8182C4.65804 24.5018 4.5 24.0726 4.5 23.625V3.375C4.5 2.92745 4.65804 2.49822 4.93934 2.18176C5.22064 1.86529 5.60218 1.6875 6 1.6875H14.25Z" fill="black"/>
</svg>
