<svg width="30" height="30" viewBox="0 0 30 30" fill="none" xmlns="http://www.w3.org/2000/svg">
<path d="M2.5 7.5C2.5 6.17392 3.02678 4.90215 3.96447 3.96447C4.90215 3.02678 6.17392 2.5 7.5 2.5H22.5C23.8261 2.5 25.0979 3.02678 26.0355 3.96447C26.9732 4.90215 27.5 6.17392 27.5 7.5V22.5C27.5 23.8261 26.9732 25.0979 26.0355 26.0355C25.0979 26.9732 23.8261 27.5 22.5 27.5H7.5C6.17392 27.5 4.90215 26.9732 3.96447 26.0355C3.02678 25.0979 2.5 23.8261 2.5 22.5V7.5Z" stroke="#939393" stroke-width="2" stroke-linecap="round" stroke-linejoin="round"/>
<path d="M10.625 13.75C12.3509 13.75 13.75 12.3509 13.75 10.625C13.75 8.89911 12.3509 7.5 10.625 7.5C8.89911 7.5 7.5 8.89911 7.5 10.625C7.5 12.3509 8.89911 13.75 10.625 13.75Z" stroke="#939393" stroke-width="2" stroke-linecap="round" stroke-linejoin="round"/>
<path d="M18.1575 15.7761L7.5 27.4999H22.6662C23.9482 27.4999 25.1777 26.9906 26.0842 26.0841C26.9907 25.1776 27.5 23.9481 27.5 22.6661V22.4999C27.5 21.9174 27.2813 21.6936 26.8875 21.2624L21.85 15.7686C21.6152 15.5125 21.3296 15.3082 21.0115 15.1686C20.6933 15.029 20.3495 14.9573 20.0021 14.958C19.6547 14.9587 19.3112 15.0318 18.9936 15.1727C18.676 15.3136 18.3912 15.5191 18.1575 15.7761V15.7761Z" stroke="#939393" stroke-width="2" stroke-linecap="round" stroke-linejoin="round"/>
</svg>
