<svg width="30" height="30" viewBox="0 0 30 30" fill="none" xmlns="http://www.w3.org/2000/svg">
<rect width="30" height="30" rx="5.45455" fill="#365D96"/>
<path d="M15 17C16.1046 17 17 16.1046 17 15C17 13.8954 16.1046 13 15 13C13.8954 13 13 13.8954 13 15C13 16.1046 13.8954 17 15 17Z" fill="white"/>
<path d="M22.4698 14.83C21.8817 13.3088 20.8608 11.9933 19.5332 11.046C18.2056 10.0988 16.6295 9.56129 14.9998 9.5C13.37 9.56129 11.794 10.0988 10.4664 11.046C9.1388 11.9933 8.11787 13.3088 7.52979 14.83C7.49007 14.9399 7.49007 15.0601 7.52979 15.17C8.11787 16.6912 9.1388 18.0067 10.4664 18.954C11.794 19.9012 13.37 20.4387 14.9998 20.5C16.6295 20.4387 18.2056 19.9012 19.5332 18.954C20.8608 18.0067 21.8817 16.6912 22.4698 15.17C22.5095 15.0601 22.5095 14.9399 22.4698 14.83ZM14.9998 18.25C14.357 18.25 13.7286 18.0594 13.1942 17.7023C12.6597 17.3452 12.2432 16.8376 11.9972 16.2437C11.7512 15.6499 11.6868 14.9964 11.8122 14.366C11.9376 13.7355 12.2472 13.1564 12.7017 12.7019C13.1562 12.2474 13.7353 11.9378 14.3657 11.8124C14.9962 11.687 15.6496 11.7514 16.2435 11.9974C16.8374 12.2434 17.3449 12.6599 17.7021 13.1944C18.0592 13.7289 18.2498 14.3572 18.2498 15C18.2485 15.8615 17.9056 16.6874 17.2964 17.2966C16.6872 17.9058 15.8613 18.2487 14.9998 18.25Z" fill="white"/>
</svg>
