<svg width="50" height="50" viewBox="0 0 50 50" fill="none" xmlns="http://www.w3.org/2000/svg">
<path d="M16.2216 31.1716L16.8661 31.9362C16.8759 31.9279 16.8855 31.9195 16.8949 31.9109L16.2216 31.1716ZM25.1993 31.1716L25.8727 30.4322L25.1993 31.1716ZM29.0892 33.5153L29.7626 34.2547V34.2547L29.0892 33.5153ZM8.06888 36.7355C7.6466 37.0915 7.59281 37.7224 7.94875 38.1447C8.30469 38.5669 8.93557 38.6207 9.35785 38.2648L8.06888 36.7355ZM35.0618 42.2826C35.4491 42.6764 36.0823 42.6816 36.476 42.2943C36.8698 41.9071 36.875 41.2739 36.4877 40.8802L35.0618 42.2826ZM38.067 33.5153L38.757 32.7915C38.7515 32.7863 38.7459 32.7811 38.7403 32.776L38.067 33.5153ZM40.771 37.4744C41.1707 37.8555 41.8037 37.8403 42.1848 37.4406C42.5658 37.0408 42.5507 36.4078 42.1509 36.0268L40.771 37.4744ZM32.3648 31.0768L32.656 32.0335L32.3648 31.0768ZM34.7914 31.0768L34.5002 32.0335L34.7914 31.0768ZM19.4971 28.733L19.7883 29.6897H19.7883L19.4971 28.733ZM21.9238 28.733L21.6326 29.6897L21.9238 28.733ZM11.7456 40.9856L11.2916 41.8766L11.7456 40.9856ZM9.01422 38.2543L8.12321 38.7083L9.01422 38.2543ZM40.9851 38.2543L41.8761 38.7083L40.9851 38.2543ZM38.2538 40.9856L38.7078 41.8766L38.2538 40.9856ZM38.2538 9.01471L38.7078 8.1237L38.2538 9.01471ZM40.9851 11.7461L41.8761 11.2921L40.9851 11.7461ZM11.7456 9.01471L11.2916 8.1237L11.7456 9.01471ZM9.01422 11.7461L8.12321 11.2921L9.01422 11.7461ZM24.526 31.9109L27.7577 34.8541L29.1044 33.3754L25.8727 30.4322L24.526 31.9109ZM29.1044 34.8541L29.7626 34.2547L28.4159 32.776L27.7577 33.3754L29.1044 34.8541ZM27.7181 34.816L35.0618 42.2826L36.4877 40.8802L29.144 33.4135L27.7181 34.816ZM37.377 34.2391L40.771 37.4744L42.1509 36.0268L38.757 32.7915L37.377 34.2391ZM29.7626 34.2547C30.5666 33.5224 31.1277 33.0124 31.5981 32.647C32.0587 32.2891 32.3707 32.1203 32.656 32.0335L32.0736 30.1201C31.4608 30.3067 30.9275 30.6354 30.3711 31.0676C29.8245 31.4922 29.1968 32.0648 28.4159 32.776L29.7626 34.2547ZM38.7403 32.776C37.9594 32.0648 37.3317 31.4922 36.7851 31.0676C36.2288 30.6354 35.6955 30.3067 35.0826 30.1201L34.5002 32.0335C34.7855 32.1203 35.0975 32.2891 35.5582 32.647C36.0285 33.0124 36.5896 33.5224 37.3936 34.2547L38.7403 32.776ZM32.656 32.0335C33.2571 31.8505 33.8991 31.8505 34.5002 32.0335L35.0826 30.1201C34.1018 29.8216 33.0544 29.8216 32.0736 30.1201L32.656 32.0335ZM16.8949 31.9109C17.699 31.1786 18.26 30.6687 18.7304 30.3032C19.191 29.9454 19.503 29.7766 19.7883 29.6897L19.2059 27.7764C18.5931 27.9629 18.0598 28.2916 17.5034 28.7238C16.9568 29.1485 16.3291 29.7211 15.5483 30.4322L16.8949 31.9109ZM25.8727 30.4322C25.0918 29.7211 24.4641 29.1485 23.9175 28.7238C23.3611 28.2916 22.8278 27.9629 22.215 27.7764L21.6326 29.6897C21.9179 29.7766 22.2299 29.9454 22.6905 30.3032C23.1609 30.6687 23.7219 31.1786 24.526 31.9109L25.8727 30.4322ZM19.7883 29.6897C20.3895 29.5067 21.0315 29.5067 21.6326 29.6897L22.215 27.7764C21.2342 27.4778 20.1867 27.4778 19.2059 27.7764L19.7883 29.6897ZM18.333 9.3335H31.6663V7.3335H18.333V9.3335ZM40.6663 18.3335V31.6668H42.6663V18.3335H40.6663ZM31.6663 40.6668H18.333V42.6668H31.6663V40.6668ZM9.33301 31.6668V18.3335H7.33301V31.6668H9.33301ZM18.333 40.6668C16.5663 40.6668 15.3015 40.6661 14.3095 40.585C13.3291 40.5049 12.7036 40.3514 12.1996 40.0946L11.2916 41.8766C12.1245 42.301 13.0425 42.4882 14.1466 42.5784C15.239 42.6676 16.5993 42.6668 18.333 42.6668V40.6668ZM7.33301 31.6668C7.33301 33.4005 7.33223 34.7609 7.42148 35.8533C7.51168 36.9573 7.69881 37.8753 8.12321 38.7083L9.90522 37.8003C9.64842 37.2963 9.49494 36.6707 9.41484 35.6904C9.33379 34.6984 9.33301 33.4335 9.33301 31.6668H7.33301ZM12.1996 40.0946C11.2117 39.5913 10.4086 38.7881 9.90522 37.8003L8.12321 38.7083C8.81829 40.0724 9.9274 41.1815 11.2916 41.8766L12.1996 40.0946ZM40.6663 31.6668C40.6663 33.4335 40.6656 34.6984 40.5845 35.6904C40.5044 36.6707 40.3509 37.2963 40.0941 37.8003L41.8761 38.7083C42.3005 37.8753 42.4877 36.9573 42.5779 35.8533C42.6671 34.7609 42.6663 33.4005 42.6663 31.6668H40.6663ZM31.6663 42.6668C33.4 42.6668 34.7604 42.6676 35.8528 42.5784C36.9568 42.4882 37.8748 42.301 38.7078 41.8766L37.7998 40.0946C37.2958 40.3514 36.6703 40.5049 35.6899 40.585C34.6979 40.6661 33.433 40.6668 31.6663 40.6668V42.6668ZM40.0941 37.8003C39.5908 38.7881 38.7876 39.5913 37.7998 40.0946L38.7078 41.8766C40.072 41.1815 41.1811 40.0724 41.8761 38.7083L40.0941 37.8003ZM31.6663 9.3335C33.433 9.3335 34.6979 9.33427 35.6899 9.41533C36.6703 9.49542 37.2958 9.64891 37.7998 9.90571L38.7078 8.1237C37.8748 7.69929 36.9568 7.51217 35.8528 7.42197C34.7604 7.33272 33.4 7.3335 31.6663 7.3335V9.3335ZM42.6663 18.3335C42.6663 16.5998 42.6671 15.2394 42.5779 14.1471C42.4877 13.043 42.3005 12.125 41.8761 11.2921L40.0941 12.2C40.3509 12.7041 40.5044 13.3296 40.5845 14.3099C40.6656 15.302 40.6663 16.5668 40.6663 18.3335H42.6663ZM37.7998 9.90571C38.7876 10.409 39.5908 11.2122 40.0941 12.2L41.8761 11.2921C41.1811 9.92789 40.072 8.81878 38.7078 8.1237L37.7998 9.90571ZM18.333 7.3335C16.5993 7.3335 15.239 7.33272 14.1466 7.42197C13.0425 7.51217 12.1245 7.69929 11.2916 8.1237L12.1996 9.90571C12.7036 9.64891 13.3291 9.49542 14.3095 9.41533C15.3015 9.33427 16.5663 9.3335 18.333 9.3335V7.3335ZM9.33301 18.3335C9.33301 16.5668 9.33379 15.302 9.41484 14.3099C9.49494 13.3296 9.64842 12.7041 9.90522 12.2L8.12321 11.2921C7.69881 12.125 7.51168 13.043 7.42148 14.1471C7.33223 15.2394 7.33301 16.5998 7.33301 18.3335H9.33301ZM11.2916 8.1237C9.9274 8.81878 8.81829 9.92789 8.12321 11.2921L9.90522 12.2C10.4086 11.2122 11.2117 10.409 12.1996 9.90571L11.2916 8.1237ZM34.4163 18.7502C34.4163 20.4991 32.9986 21.9168 31.2497 21.9168V23.9168C34.1031 23.9168 36.4163 21.6036 36.4163 18.7502H34.4163ZM31.2497 21.9168C29.5008 21.9168 28.083 20.4991 28.083 18.7502H26.083C26.083 21.6036 28.3962 23.9168 31.2497 23.9168V21.9168ZM28.083 18.7502C28.083 17.0013 29.5008 15.5835 31.2497 15.5835V13.5835C28.3962 13.5835 26.083 15.8967 26.083 18.7502H28.083ZM31.2497 15.5835C32.9986 15.5835 34.4163 17.0013 34.4163 18.7502H36.4163C36.4163 15.8967 34.1031 13.5835 31.2497 13.5835V15.5835ZM9.35785 38.2648L16.8661 31.9362L15.5771 30.407L8.06888 36.7355L9.35785 38.2648Z" fill="#131A29"/>
</svg>
