<svg width="20" height="20" viewBox="0 0 20 20" fill="none" xmlns="http://www.w3.org/2000/svg">
<path d="M10 2.5L11.1918 6.92651C11.3373 7.46667 11.41 7.73674 11.5535 7.95754C11.6805 8.15291 11.8471 8.31947 12.0425 8.44648C12.2633 8.59002 12.5333 8.66273 13.0735 8.80817L17.5 10L13.0735 11.1918C12.5333 11.3373 12.2633 11.41 12.0425 11.5535C11.8471 11.6805 11.6805 11.8471 11.5535 12.0425C11.41 12.2633 11.3373 12.5333 11.1918 13.0735L10 17.5L8.80817 13.0735C8.66273 12.5333 8.59002 12.2633 8.44648 12.0425C8.31947 11.8471 8.15291 11.6805 7.95754 11.5535C7.73674 11.41 7.46667 11.3373 6.92651 11.1918L2.5 10L6.92651 8.80817C7.46667 8.66273 7.73674 8.59002 7.95754 8.44648C8.15291 8.31947 8.31947 8.15291 8.44648 7.95754C8.59002 7.73674 8.66273 7.46667 8.80817 6.92651L10 2.5Z" stroke="#131A29" stroke-width="2" stroke-linecap="round" stroke-linejoin="round"/>
</svg>
