<svg width="24" height="24" viewBox="0 0 24 24" fill="none" xmlns="http://www.w3.org/2000/svg">
<path d="M15.4379 5.56122L18.2624 8.39355M2.98535 21.0081C3.1113 20.1265 3.18148 19.2094 3.47564 18.3642C3.6451 17.8774 3.8766 17.4144 4.16441 16.9867C4.48877 16.5047 4.90854 16.0849 5.74809 15.2454L17.4094 3.58969C18.1905 2.80865 19.4568 2.80864 20.2378 3.58969C21.0189 4.37074 21.0189 5.63707 20.2378 6.41812L8.39699 18.2533C7.68563 18.9647 7.32995 19.3204 6.9271 19.6084C6.56946 19.8641 6.1848 20.0797 5.78005 20.2514C4.89619 20.6262 3.91662 20.7838 2.98535 21.0081Z" stroke="#365D96" stroke-width="2" stroke-linejoin="round"/>
</svg>
