<svg width="32" height="32" viewBox="0 0 32 32" fill="none" xmlns="http://www.w3.org/2000/svg">
<path d="M18.2788 19.9181C19.0192 19.4373 19.5818 18.7356 19.8832 17.9171C20.1847 17.0986 20.2091 16.2067 19.9527 15.3736C19.6964 14.5405 19.1729 13.8104 18.4598 13.2914C17.7468 12.7724 16.8821 12.4922 15.9937 12.4922C15.1054 12.4922 14.2407 12.7724 13.5276 13.2914C12.8146 13.8104 12.2911 14.5405 12.0347 15.3736C11.7784 16.2067 11.8027 17.0986 12.1042 17.9171C12.4057 18.7356 12.9683 19.4373 13.7086 19.9181C12.4375 20.376 11.3401 21.2044 10.5643 22.2918C9.78841 23.3792 9.37131 24.6734 9.36914 26H10.4725C10.4725 24.5662 11.054 23.1912 12.089 22.1773C13.124 21.1635 14.5278 20.5939 15.9916 20.5939C17.4553 20.5939 18.8591 21.1635 19.8941 22.1773C20.9291 23.1912 21.5106 24.5662 21.5106 26H22.614C22.6121 24.6739 22.1957 23.3801 21.4206 22.2928C20.6456 21.2054 19.5491 20.3767 18.2788 19.9181ZM15.9959 19.5131C15.3928 19.5156 14.8024 19.3428 14.2997 19.0164C13.7969 18.69 13.4044 18.2248 13.1718 17.6797C12.9391 17.1345 12.8769 16.5341 12.993 15.9543C13.1091 15.3745 13.3983 14.8416 13.8238 14.4229C14.2494 14.0043 14.7923 13.7187 15.3836 13.6025C15.975 13.4863 16.5883 13.5447 17.1458 13.7702C17.7033 13.9957 18.1799 14.3782 18.5152 14.8693C18.8506 15.3603 19.0296 15.9379 19.0296 16.5287C19.0297 17.318 18.7104 18.0751 18.1419 18.6345C17.5733 19.1938 16.8017 19.5097 15.9959 19.5131Z" fill="#365D96"/>
<path d="M23.7984 17.2257C24.317 16.8895 24.7515 16.443 25.0696 15.9194C25.3876 15.3959 25.581 14.8089 25.6353 14.202C25.6897 13.5951 25.6035 12.9841 25.3834 12.4143C25.1632 11.8446 24.8147 11.3308 24.3637 10.9113C23.9127 10.4918 23.371 10.1773 22.7788 9.99127C22.1865 9.80526 21.5591 9.75251 20.9432 9.83694C20.3272 9.92137 19.7387 10.1408 19.2213 10.4789C18.704 10.817 18.2711 11.2651 17.9551 11.7897C18.2975 11.9247 18.6243 12.0947 18.93 12.2971C19.1249 11.9869 19.3756 11.7138 19.67 11.4913C20.0524 11.2065 20.4984 11.0148 20.9713 10.9321C21.4442 10.8494 21.9303 10.878 22.3897 11.0157C22.8491 11.1533 23.2685 11.3959 23.6132 11.7236C23.958 12.0512 24.2182 12.4545 24.3725 12.9001C24.5269 13.3457 24.5708 13.8209 24.5007 14.2864C24.4306 14.7519 24.2484 15.1944 23.9694 15.5773C23.6903 15.9603 23.3222 16.2728 22.8955 16.489C22.4689 16.7051 21.9958 16.8188 21.5155 16.8207C21.4175 16.8207 21.3196 16.8207 21.226 16.8057C21.2074 17.1881 21.1446 17.5671 21.0389 17.9356C21.1977 17.9206 21.3522 17.9015 21.5155 17.9015C22.9762 17.9104 24.3745 18.4829 25.4072 19.4949C26.4399 20.5069 27.0238 21.8767 27.0323 23.3076H28.1379C28.1351 21.9811 27.7178 20.6872 26.942 19.5999C26.1662 18.5127 25.0692 17.6841 23.7984 17.2257Z" fill="#365D96"/>
<path d="M10.4764 17.8908C10.6374 17.8908 10.7941 17.91 10.9508 17.9249C10.8458 17.5564 10.7837 17.1773 10.7658 16.7951C10.6701 16.7951 10.5743 16.81 10.4764 16.81C10.1989 16.8097 9.92276 16.7717 9.65592 16.697C9.22508 16.579 8.82624 16.369 8.48796 16.0822C8.14968 15.7954 7.88035 15.4389 7.69925 15.0382C7.51815 14.6375 7.42976 14.2025 7.44043 13.7644C7.4511 13.3263 7.56056 12.8959 7.76096 12.5041C7.96136 12.1123 8.24774 11.7688 8.59959 11.4981C8.95144 11.2275 9.36005 11.0364 9.79615 10.9386C10.2322 10.8408 10.685 10.8386 11.1221 10.9324C11.5591 11.0261 11.9696 11.2133 12.324 11.4807C12.6191 11.7031 12.8705 11.9761 13.0661 12.2865C13.3717 12.0837 13.6985 11.9136 14.0411 11.7791C13.8463 11.4575 13.6076 11.1635 13.3317 10.9051C12.9134 10.531 12.4212 10.245 11.8855 10.065C11.3497 9.88491 10.782 9.81457 10.2174 9.85832C9.65275 9.90206 9.10332 10.059 8.60316 10.3193C8.10301 10.5796 7.6628 10.9378 7.3098 11.3717C6.95681 11.8055 6.69857 12.3058 6.55111 12.8415C6.40364 13.3771 6.37009 13.9367 6.45254 14.4856C6.53498 15.0345 6.73166 15.5609 7.03038 16.0323C7.32911 16.5036 7.7235 16.9098 8.18911 17.2257C6.91798 17.6836 5.8206 18.512 5.04474 19.5994C4.26887 20.6868 3.85178 21.9809 3.84961 23.3076H4.95298C4.96155 21.8764 5.54577 20.5062 6.57894 19.4941C7.61211 18.4821 9.01092 17.9099 10.472 17.9015L10.4764 17.8908Z" fill="#365D96"/>
<path d="M27.6597 13.4313C28.1373 13.1207 28.5437 12.7162 28.8531 12.2435C29.1626 11.7708 29.3683 11.2402 29.4572 10.6855C29.5461 10.1308 29.5163 9.56397 29.3697 9.02112C29.2231 8.47827 28.9628 7.97122 28.6054 7.53216C28.2481 7.0931 27.8014 6.73163 27.2938 6.47069C26.7862 6.20976 26.2287 6.05506 25.6568 6.01643C25.0849 5.9778 24.5111 6.05608 23.9717 6.24629C23.4323 6.4365 22.9392 6.73449 22.5237 7.12135C22.2484 7.3798 22.0105 7.67385 21.8164 7.99536C22.1588 8.13026 22.4856 8.30033 22.7914 8.50271C22.9862 8.19247 23.2369 7.91945 23.5313 7.69692C23.8696 7.43948 24.2597 7.25518 24.676 7.15619C25.0923 7.05719 25.5253 7.04573 25.9464 7.12256C26.3675 7.1994 26.7672 7.36279 27.1192 7.60196C27.4712 7.84113 27.7674 8.15065 27.9884 8.51012C28.2093 8.8696 28.35 9.27086 28.4011 9.68747C28.4523 10.1041 28.4127 10.5266 28.285 10.9271C28.1573 11.3276 27.9444 11.6971 27.6603 12.0112C27.3762 12.3252 27.0274 12.5767 26.6369 12.7491C26.6864 13.0093 26.7119 13.2733 26.713 13.5379C26.7111 13.7794 26.6893 14.0204 26.6477 14.2584C27.8555 14.5388 28.9316 15.2096 29.7024 16.1626C30.4731 17.1156 30.8936 18.2952 30.8958 19.511H31.9992C31.996 18.1849 31.5784 16.8915 30.8027 15.8047C30.0269 14.7178 28.9301 13.8896 27.6597 13.4313Z" fill="#FA6541"/>
<path d="M5.2753 13.54C5.28023 13.2744 5.30863 13.0098 5.36017 12.7491C4.92872 12.5564 4.54942 12.2673 4.25276 11.905C3.9561 11.5426 3.75035 11.1172 3.65204 10.6628C3.55373 10.2084 3.56561 9.73777 3.68671 9.2887C3.80781 8.83963 4.03476 8.42465 4.34934 8.07711C4.66391 7.72956 5.05732 7.45915 5.49796 7.28759C5.93861 7.11603 6.41419 7.0481 6.8865 7.08928C7.35881 7.13046 7.81466 7.27959 8.21744 7.52469C8.62022 7.76979 8.95869 8.10402 9.20565 8.50052C9.51194 8.29772 9.83953 8.12763 10.1828 7.99317C9.98798 7.67159 9.7493 7.37754 9.47335 7.11915C9.05801 6.73118 8.56478 6.43215 8.02503 6.24109C7.48528 6.05003 6.91083 5.97113 6.33824 6.0094C5.76566 6.04766 5.20748 6.20227 4.69923 6.46337C4.19097 6.72447 3.74377 7.08635 3.38608 7.52598C3.02839 7.96561 2.76806 8.47336 2.62163 9.01693C2.4752 9.56049 2.44589 10.128 2.53558 10.6832C2.62526 11.2385 2.83196 11.7694 3.14253 12.2421C3.4531 12.7149 3.86074 13.1191 4.3395 13.4291C3.06837 13.887 1.97099 14.7154 1.19513 15.8028C0.419262 16.8902 0.00216696 18.1843 0 19.511H1.10337C1.10564 18.2952 1.52608 17.1156 2.29683 16.1625C3.06759 15.2095 4.14369 14.5387 5.35147 14.2584C5.30637 14.0213 5.28089 13.781 5.2753 13.54Z" fill="#FA6541"/>
<path d="M15.9948 7.07831C16.698 7.08085 17.3784 7.32275 17.9195 7.76258C18.4606 8.20241 18.8288 8.81283 18.9611 9.48931C19.2817 9.29247 19.6331 9.14845 20.0013 9.06297C19.7742 8.19101 19.257 7.418 18.5315 6.86592C17.806 6.31385 16.9135 6.01416 15.9948 6.01416C15.0761 6.01416 14.1836 6.31385 13.4581 6.86592C12.7326 7.418 12.2154 8.19101 11.9883 9.06297C12.3564 9.14877 12.7077 9.29278 13.0285 9.48931C13.1604 8.81265 13.5285 8.202 14.0697 7.7621C14.6109 7.32219 15.2915 7.08044 15.9948 7.07831Z" fill="#FA6541"/>
</svg>
