<svg width="24" height="24" viewBox="0 0 24 24" fill="none" xmlns="http://www.w3.org/2000/svg">
<path d="M5 12.0004C5 12.5527 5.44772 13.0004 6 13.0004C6.55228 13.0004 7 12.5527 7 12.0004H5ZM6 10.0004V9.00043C5.44772 9.00043 5 9.44814 5 10.0004H6ZM18 10.0004H19C19 9.44814 18.5523 9.00043 18 9.00043V10.0004ZM17 12.0004C17 12.5527 17.4477 13.0004 18 13.0004C18.5523 13.0004 19 12.5527 19 12.0004H17ZM9.4472 4.60362L8.91537 3.75677L9.4472 4.60362ZM11.3327 3.61812L11.1103 2.64317L11.3327 3.61812ZM14.5528 4.60362L14.021 5.45047L14.5528 4.60362ZM12.6673 3.61812L12.8897 2.64317L12.6673 3.61812ZM4.63803 19.6734L4.18404 20.5645L4.63803 19.6734ZM3.32698 18.3624L2.43597 18.8164L3.32698 18.3624ZM20.673 18.3624L21.564 18.8164L20.673 18.3624ZM19.362 19.6734L19.816 20.5645L19.362 19.6734ZM20.8633 9.41586L19.9089 9.71426L20.8633 9.41586ZM18.7528 7.24127L19.2846 6.39442L18.7528 7.24127ZM20.2809 8.36233L21.0412 7.71275L20.2809 8.36233ZM3.13667 9.41586L4.09111 9.71426L3.13667 9.41586ZM5.2472 7.24127L4.71537 6.39442L5.2472 7.24127ZM3.7191 8.36233L2.9588 7.71275L3.7191 8.36233ZM3.58491 9.16946C3.12594 8.86226 2.50484 8.9853 2.19765 9.44426C1.89046 9.90323 2.01349 10.5243 2.47246 10.8315L3.58491 9.16946ZM10.225 14.8171L9.66873 15.6481L9.67026 15.6491L10.225 14.8171ZM13.775 14.8171L14.3297 15.6491L14.3313 15.6481L13.775 14.8171ZM21.5275 10.8315C21.9865 10.5243 22.1095 9.90316 21.8023 9.4442C21.4951 8.98523 20.874 8.8622 20.4151 9.1694L21.5275 10.8315ZM11.5339 15.5417L11.767 14.5692H11.767L11.5339 15.5417ZM12.4661 15.5417L12.233 14.5692H12.233L12.4661 15.5417ZM7 12.0004V10.0004H5V12.0004H7ZM6 11.0004H18V9.00043H6V11.0004ZM17 10.0004V12.0004H19V10.0004H17ZM20 11.3061V15.2004H22V11.3061H20ZM16.2 19.0004H7.8V21.0004H16.2V19.0004ZM4 15.2004V11.3062H2V15.2004H4ZM5.77904 8.08812L9.97904 5.45047L8.91537 3.75677L4.71537 6.39442L5.77904 8.08812ZM14.021 5.45047L18.221 8.08812L19.2846 6.39442L15.0846 3.75677L14.021 5.45047ZM9.97904 5.45047C10.9673 4.82981 11.2636 4.65959 11.5551 4.59307L11.1103 2.64317C10.4084 2.80331 9.77877 3.21454 8.91537 3.75677L9.97904 5.45047ZM15.0846 3.75677C14.2212 3.21454 13.5916 2.80331 12.8897 2.64317L12.4449 4.59307C12.7364 4.65959 13.0327 4.82981 14.021 5.45047L15.0846 3.75677ZM11.5551 4.59307C11.848 4.52627 12.152 4.52627 12.4449 4.59307L12.8897 2.64317C12.3041 2.50957 11.6959 2.50957 11.1103 2.64317L11.5551 4.59307ZM7.8 19.0004C6.94342 19.0004 6.36113 18.9996 5.91104 18.9629C5.47262 18.9271 5.24842 18.8621 5.09202 18.7824L4.18404 20.5645C4.66937 20.8117 5.18608 20.9103 5.74817 20.9562C6.2986 21.0012 6.97642 21.0004 7.8 21.0004V19.0004ZM2 15.2004C2 16.024 1.99922 16.7018 2.04419 17.2523C2.09012 17.8143 2.18868 18.3311 2.43597 18.8164L4.21799 17.9084C4.1383 17.752 4.07337 17.5278 4.03755 17.0894C4.00078 16.6393 4 16.057 4 15.2004H2ZM5.09202 18.7824C4.7157 18.5907 4.40973 18.2847 4.21799 17.9084L2.43597 18.8164C2.81947 19.569 3.43139 20.181 4.18404 20.5645L5.09202 18.7824ZM20 15.2004C20 16.057 19.9992 16.6393 19.9624 17.0894C19.9266 17.5278 19.8617 17.752 19.782 17.9084L21.564 18.8164C21.8113 18.3311 21.9099 17.8143 21.9558 17.2523C22.0008 16.7018 22 16.024 22 15.2004H20ZM16.2 21.0004C17.0236 21.0004 17.7014 21.0012 18.2518 20.9562C18.8139 20.9103 19.3306 20.8117 19.816 20.5645L18.908 18.7824C18.7516 18.8621 18.5274 18.9271 18.089 18.9629C17.6389 18.9996 17.0566 19.0004 16.2 19.0004V21.0004ZM19.782 17.9084C19.5903 18.2847 19.2843 18.5907 18.908 18.7824L19.816 20.5645C20.5686 20.181 21.1805 19.569 21.564 18.8164L19.782 17.9084ZM22 11.3061C22 10.4018 22.0108 9.73483 21.8178 9.11747L19.9089 9.71426C19.9892 9.97122 20 10.273 20 11.3061H22ZM18.221 8.08812C19.0959 8.6376 19.3457 8.80721 19.5206 9.0119L21.0412 7.71275C20.621 7.22097 20.0504 6.87537 19.2846 6.39442L18.221 8.08812ZM21.8178 9.11747C21.6565 8.60157 21.3923 8.12371 21.0412 7.71275L19.5206 9.0119C19.6962 9.21738 19.8282 9.45631 19.9089 9.71426L21.8178 9.11747ZM4 11.3062C4 10.273 4.01078 9.97122 4.09111 9.71426L2.18223 9.11747C1.98922 9.73483 2 10.4018 2 11.3062H4ZM4.71537 6.39442C3.94955 6.87537 3.37897 7.22097 2.9588 7.71275L4.4794 9.0119C4.65428 8.80721 4.90408 8.6376 5.77904 8.08812L4.71537 6.39442ZM4.09111 9.71426C4.17176 9.45631 4.30385 9.21738 4.4794 9.0119L2.9588 7.71275C2.60769 8.12371 2.34352 8.60157 2.18223 9.11747L4.09111 9.71426ZM2.47246 10.8315L9.66874 15.6481L10.7812 13.986L3.58491 9.16946L2.47246 10.8315ZM14.3313 15.6481L21.5275 10.8315L20.4151 9.1694L13.2188 13.986L14.3313 15.6481ZM9.67026 15.6491C10.2464 16.0332 10.7392 16.3795 11.3009 16.5141L11.767 14.5692C11.6353 14.5376 11.4865 14.4563 10.7797 13.985L9.67026 15.6491ZM13.2203 13.985C12.5135 14.4563 12.3647 14.5376 12.233 14.5692L12.6991 16.5141C13.2608 16.3795 13.7536 16.0332 14.3297 15.6491L13.2203 13.985ZM11.3009 16.5141C11.7605 16.6243 12.2395 16.6243 12.6991 16.5141L12.233 14.5692C12.0798 14.6059 11.9202 14.6059 11.767 14.5692L11.3009 16.5141Z" fill="white"/>
</svg>
