<svg width="24" height="24" viewBox="0 0 24 24" fill="none" xmlns="http://www.w3.org/2000/svg">
<path d="M17 16C16.4477 16 16 16.4477 16 17C16 17.5523 16.4477 18 17 18V16ZM17.01 18C17.5623 18 18.01 17.5523 18.01 17C18.01 16.4477 17.5623 16 17.01 16V18ZM17.4 13C16.8477 13 16.4 13.4477 16.4 14C16.4 14.5523 16.8477 15 17.4 15V13ZM6.6 15C7.15228 15 7.6 14.5523 7.6 14C7.6 13.4477 7.15228 13 6.6 13V15ZM4.23463 19.8478L3.85195 20.7716H3.85195L4.23463 19.8478ZM3.15224 18.7654L2.22836 19.1481H2.22836L3.15224 18.7654ZM20.8478 18.7654L21.7716 19.1481L20.8478 18.7654ZM19.7654 19.8478L20.148 20.7716L19.7654 19.8478ZM20.8478 15.2346L21.7716 14.852L20.8478 15.2346ZM19.7654 14.1522L19.3827 15.0761L19.7654 14.1522ZM3.15224 15.2346L2.22836 14.8519H2.22836L3.15224 15.2346ZM4.23463 14.1522L3.85195 13.2284H3.85195L4.23463 14.1522ZM12 15L11.2929 15.7071C11.6834 16.0976 12.3166 16.0976 12.7071 15.7071L12 15ZM13 4C13 3.44772 12.5523 3 12 3C11.4477 3 11 3.44772 11 4H13ZM9.70711 11.2929C9.31658 10.9024 8.68342 10.9024 8.29289 11.2929C7.90237 11.6834 7.90237 12.3166 8.29289 12.7071L9.70711 11.2929ZM15.7071 12.7071C16.0976 12.3166 16.0976 11.6834 15.7071 11.2929C15.3166 10.9024 14.6834 10.9024 14.2929 11.2929L15.7071 12.7071ZM17 18H17.01V16H17V18ZM18 19H6V21H18V19ZM17.4 15H18V13H17.4V15ZM6 15H6.6V13H6V15ZM6 19C5.52038 19 5.21074 18.9995 4.97376 18.9833C4.74576 18.9677 4.65893 18.9411 4.61732 18.9239L3.85195 20.7716C4.17788 20.9066 4.50779 20.9561 4.83762 20.9787C5.15846 21.0005 5.54774 21 6 21V19ZM2 17C2 17.4523 1.99946 17.8415 2.02135 18.1624C2.04385 18.4922 2.09336 18.8221 2.22836 19.1481L4.07612 18.3827C4.05888 18.3411 4.03227 18.2542 4.01671 18.0262C4.00054 17.7893 4 17.4796 4 17H2ZM4.61732 18.9239C4.37229 18.8224 4.17761 18.6277 4.07612 18.3827L2.22836 19.1481C2.53284 19.8831 3.11687 20.4672 3.85195 20.7716L4.61732 18.9239ZM20 17C20 17.4796 19.9995 17.7893 19.9833 18.0262C19.9677 18.2542 19.9411 18.3411 19.9239 18.3827L21.7716 19.1481C21.9066 18.8221 21.9561 18.4922 21.9787 18.1624C22.0005 17.8415 22 17.4523 22 17H20ZM18 21C18.4523 21 18.8415 21.0005 19.1624 20.9787C19.4922 20.9561 19.8221 20.9066 20.148 20.7716L19.3827 18.9239C19.3411 18.9411 19.2542 18.9677 19.0262 18.9833C18.7893 18.9995 18.4796 19 18 19V21ZM19.9239 18.3827C19.8224 18.6277 19.6277 18.8224 19.3827 18.9239L20.148 20.7716C20.8831 20.4672 21.4672 19.8831 21.7716 19.1481L19.9239 18.3827ZM22 17C22 16.5477 22.0005 16.1585 21.9787 15.8376C21.9561 15.5078 21.9066 15.1779 21.7716 14.852L19.9239 15.6173C19.9411 15.6589 19.9677 15.7458 19.9833 15.9738C19.9995 16.2107 20 16.5204 20 17H22ZM18 15C18.4796 15 18.7893 15.0005 19.0262 15.0167C19.2542 15.0323 19.3411 15.0589 19.3827 15.0761L20.148 13.2284C19.8221 13.0934 19.4922 13.0439 19.1624 13.0213C18.8415 12.9995 18.4523 13 18 13V15ZM21.7716 14.852C21.4672 14.1169 20.8831 13.5328 20.148 13.2284L19.3827 15.0761C19.6277 15.1776 19.8224 15.3723 19.9239 15.6173L21.7716 14.852ZM4 17C4 16.5204 4.00054 16.2107 4.01671 15.9738C4.03227 15.7458 4.05888 15.6589 4.07612 15.6173L2.22836 14.8519C2.09336 15.1779 2.04385 15.5078 2.02135 15.8376C1.99946 16.1585 2 16.5477 2 17H4ZM6 13C5.54774 13 5.15846 12.9995 4.83762 13.0213C4.50779 13.0439 4.17788 13.0934 3.85195 13.2284L4.61732 15.0761C4.65893 15.0589 4.74576 15.0323 4.97376 15.0167C5.21074 15.0005 5.52038 15 6 15V13ZM4.07612 15.6173C4.17761 15.3723 4.37229 15.1776 4.61732 15.0761L3.85195 13.2284C3.11686 13.5328 2.53284 14.1169 2.22836 14.8519L4.07612 15.6173ZM13 15V4H11V15H13ZM8.29289 12.7071L11.2929 15.7071L12.7071 14.2929L9.70711 11.2929L8.29289 12.7071ZM12.7071 15.7071L15.7071 12.7071L14.2929 11.2929L11.2929 14.2929L12.7071 15.7071Z" fill="white"/>
</svg>
