<svg width="24" height="24" viewBox="0 0 24 24" fill="none" xmlns="http://www.w3.org/2000/svg">
<path d="M15.4384 5.56122L18.2629 8.39355M2.98584 21.0081C3.11179 20.1265 3.18197 19.2094 3.47613 18.3642C3.64559 17.8774 3.87708 17.4144 4.1649 16.9867C4.48925 16.5047 4.90903 16.0849 5.74858 15.2454L17.4099 3.58969C18.191 2.80865 19.4573 2.80864 20.2383 3.58969C21.0194 4.37074 21.0194 5.63707 20.2383 6.41812L8.39748 18.2533C7.68612 18.9647 7.33044 19.3204 6.92759 19.6084C6.56995 19.8641 6.18529 20.0797 5.78054 20.2514C4.89668 20.6262 3.91711 20.7838 2.98584 21.0081Z" stroke="#7D7D7D" stroke-width="2" stroke-linejoin="round"/>
</svg>
