<svg width="30" height="30" viewBox="0 0 30 30" fill="none" xmlns="http://www.w3.org/2000/svg">
<path d="M3.78598 10L10.6045 14.5563C12.2053 15.6203 13.0057 16.1524 13.8705 16.3591C14.6348 16.5418 15.4313 16.5418 16.1956 16.3591C17.0604 16.1524 17.8608 15.6203 19.4616 14.5563L26.217 10.0501M9.75 23.75H20.25C22.3502 23.75 23.4003 23.75 24.2025 23.3413C24.9081 22.9817 25.4817 22.4081 25.8413 21.7025C26.25 20.9003 26.25 19.8502 26.25 17.75V12.25C26.25 10.1498 26.25 9.0997 25.8413 8.29754C25.4817 7.59193 24.9081 7.01825 24.2025 6.65873C23.4003 6.25 22.3502 6.25 20.25 6.25H9.75C7.6498 6.25 6.5997 6.25 5.79754 6.65873C5.09193 7.01825 4.51825 7.59193 4.15873 8.29754C3.75 9.0997 3.75 10.1498 3.75 12.25V17.75C3.75 19.8502 3.75 20.9003 4.15873 21.7025C4.51825 22.4081 5.09193 22.9817 5.79754 23.3413C6.5997 23.75 7.6498 23.75 9.75 23.75Z" stroke="#365D96" stroke-width="2" stroke-linecap="round" stroke-linejoin="round"/>
</svg>
