<svg width="24" height="24" viewBox="0 0 24 24" fill="none" xmlns="http://www.w3.org/2000/svg">
<path d="M19.8999 12.6594C19.7396 12.4769 19.6512 12.2423 19.6512 11.9994C19.6512 11.7565 19.7396 11.5219 19.8999 11.3394L21.1799 9.89941C21.3209 9.74208 21.4085 9.54411 21.4301 9.33391C21.4516 9.12372 21.4061 8.91209 21.2999 8.72941L19.2999 5.26941C19.1948 5.08693 19.0348 4.94228 18.8426 4.85609C18.6505 4.7699 18.4361 4.74656 18.2299 4.78941L16.3499 5.16941C16.1107 5.21884 15.8616 5.179 15.6498 5.05741C15.4379 4.93582 15.2779 4.74089 15.1999 4.50941L14.5899 2.67941C14.5228 2.48079 14.395 2.30827 14.2245 2.18625C14.0541 2.06423 13.8495 1.99887 13.6399 1.99941H9.6399C9.42183 1.98802 9.20603 2.04833 9.02546 2.17112C8.84489 2.29391 8.70948 2.47243 8.6399 2.67941L8.0799 4.50941C8.0019 4.74089 7.84187 4.93582 7.63001 5.05741C7.41815 5.179 7.16911 5.21884 6.9299 5.16941L4.9999 4.78941C4.80445 4.76179 4.6052 4.79263 4.42724 4.87805C4.24929 4.96346 4.1006 5.09964 3.9999 5.26941L1.9999 8.72941C1.89106 8.91006 1.84212 9.12049 1.86008 9.33063C1.87804 9.54077 1.96198 9.73985 2.0999 9.89941L3.3699 11.3394C3.53022 11.5219 3.61863 11.7565 3.61863 11.9994C3.61863 12.2423 3.53022 12.4769 3.3699 12.6594L2.0999 14.0994C1.96198 14.259 1.87804 14.458 1.86008 14.6682C1.84212 14.8783 1.89106 15.0888 1.9999 15.2694L3.9999 18.7294C4.10499 18.9119 4.26502 19.0565 4.45715 19.1427C4.64928 19.2289 4.86372 19.2522 5.0699 19.2094L6.9499 18.8294C7.18911 18.78 7.43815 18.8198 7.65001 18.9414C7.86187 19.063 8.0219 19.2579 8.0999 19.4894L8.7099 21.3194C8.77948 21.5264 8.91489 21.7049 9.09546 21.8277C9.27603 21.9505 9.49183 22.0108 9.7099 21.9994H13.7099C13.9195 21.9999 14.1241 21.9346 14.2945 21.8126C14.465 21.6905 14.5928 21.518 14.6599 21.3194L15.2699 19.4894C15.3479 19.2579 15.5079 19.063 15.7198 18.9414C15.9316 18.8198 16.1807 18.78 16.4199 18.8294L18.2999 19.2094C18.5061 19.2522 18.7205 19.2289 18.9126 19.1427C19.1048 19.0565 19.2648 18.9119 19.3699 18.7294L21.3699 15.2694C21.4761 15.0867 21.5216 14.8751 21.5001 14.6649C21.4785 14.4547 21.3909 14.2567 21.2499 14.0994L19.8999 12.6594ZM18.4099 13.9994L19.2099 14.8994L17.9299 17.1194L16.7499 16.8794C16.0297 16.7322 15.2805 16.8545 14.6445 17.2232C14.0085 17.5919 13.53 18.1812 13.2999 18.8794L12.9199 19.9994H10.3599L9.9999 18.8594C9.76975 18.1612 9.29128 17.5719 8.6553 17.2032C8.01932 16.8345 7.27012 16.7122 6.5499 16.8594L5.3699 17.0994L4.0699 14.8894L4.8699 13.9894C5.36185 13.4394 5.63383 12.7273 5.63383 11.9894C5.63383 11.2515 5.36185 10.5394 4.8699 9.98941L4.0699 9.08941L5.3499 6.88941L6.5299 7.12941C7.25012 7.27663 7.99932 7.15429 8.6353 6.78561C9.27128 6.41692 9.74975 5.82757 9.9799 5.12941L10.3599 3.99941H12.9199L13.2999 5.13941C13.53 5.83757 14.0085 6.42692 14.6445 6.79561C15.2805 7.16429 16.0297 7.28663 16.7499 7.13941L17.9299 6.89941L19.2099 9.11941L18.4099 10.0194C17.9235 10.5682 17.6549 11.2761 17.6549 12.0094C17.6549 12.7427 17.9235 13.4506 18.4099 13.9994ZM11.6399 7.99941C10.8488 7.99941 10.0754 8.234 9.41761 8.67353C8.75982 9.11305 8.24713 9.73777 7.94438 10.4687C7.64163 11.1996 7.56241 12.0038 7.71675 12.7798C7.8711 13.5557 8.25206 14.2684 8.81147 14.8278C9.37088 15.3872 10.0836 15.7682 10.8595 15.9225C11.6355 16.0769 12.4397 15.9977 13.1706 15.6949C13.9015 15.3922 14.5262 14.8795 14.9658 14.2217C15.4053 13.5639 15.6399 12.7905 15.6399 11.9994C15.6399 10.9385 15.2185 9.92112 14.4683 9.17098C13.7182 8.42083 12.7008 7.99941 11.6399 7.99941ZM11.6399 13.9994C11.2443 13.9994 10.8577 13.8821 10.5288 13.6623C10.1999 13.4426 9.94351 13.1302 9.79214 12.7648C9.64076 12.3993 9.60116 11.9972 9.67833 11.6092C9.7555 11.2213 9.94598 10.8649 10.2257 10.5852C10.5054 10.3055 10.8618 10.115 11.2497 10.0378C11.6377 9.96067 12.0398 10.0003 12.4053 10.1516C12.7707 10.303 13.0831 10.5594 13.3028 10.8883C13.5226 11.2172 13.6399 11.6038 13.6399 11.9994C13.6399 12.5298 13.4292 13.0385 13.0541 13.4136C12.679 13.7887 12.1703 13.9994 11.6399 13.9994Z" fill="white"/>
</svg>
