<svg width="24" height="24" viewBox="0 0 24 24" fill="none" xmlns="http://www.w3.org/2000/svg">
<g clip-path="url(#clip0_8160_16103)">
<path d="M8.5 11V13C8.5 13.827 9.173 14.5 10 14.5C10.827 14.5 11.5 13.827 11.5 13V11C11.5 10.173 10.827 9.5 10 9.5C9.173 9.5 8.5 10.173 8.5 11ZM10.5 11V13C10.5 13.1326 10.4473 13.2598 10.3536 13.3536C10.2598 13.4473 10.1326 13.5 10 13.5C9.86739 13.5 9.74021 13.4473 9.64645 13.3536C9.55268 13.2598 9.5 13.1326 9.5 13V11C9.5 10.8674 9.55268 10.7402 9.64645 10.6464C9.74021 10.5527 9.86739 10.5 10 10.5C10.1326 10.5 10.2598 10.5527 10.3536 10.6464C10.4473 10.7402 10.5 10.8674 10.5 11ZM6.149 7.313C7.584 5.525 9.715 4.5 11.999 4.5C14.283 4.5 16.414 5.525 17.849 7.313C17.9323 7.41599 18.053 7.48188 18.1846 7.49631C18.3163 7.51073 18.4484 7.47252 18.552 7.39C18.6032 7.3489 18.6458 7.29812 18.6774 7.24054C18.709 7.18297 18.729 7.11973 18.7361 7.05445C18.7433 6.98917 18.7375 6.92312 18.7191 6.86007C18.7007 6.79702 18.6701 6.73821 18.629 6.687C17.8348 5.69127 16.8262 4.88757 15.6782 4.33576C14.5303 3.78396 13.2727 3.49828 11.999 3.5C10.7253 3.49821 9.46766 3.78386 8.31971 4.33567C7.17177 4.88747 6.16315 5.69121 5.369 6.687C5.28599 6.79043 5.24746 6.92261 5.2619 7.05445C5.27634 7.18629 5.34257 7.30699 5.446 7.39C5.54943 7.47301 5.68161 7.51154 5.81345 7.4971C5.94528 7.48266 6.06599 7.41643 6.149 7.313ZM14 14.5C14.1326 14.5 14.2598 14.4473 14.3536 14.3536C14.4473 14.2598 14.5 14.1326 14.5 14V10.5H15.5C15.6326 10.5 15.7598 10.4473 15.8536 10.3536C15.9473 10.2598 16 10.1326 16 10C16 9.86739 15.9473 9.74021 15.8536 9.64645C15.7598 9.55268 15.6326 9.5 15.5 9.5H12.5C12.3674 9.5 12.2402 9.55268 12.1464 9.64645C12.0527 9.74021 12 9.86739 12 10C12 10.1326 12.0527 10.2598 12.1464 10.3536C12.2402 10.4473 12.3674 10.5 12.5 10.5H13.5V14C13.5 14.1326 13.5527 14.2598 13.6464 14.3536C13.7402 14.4473 13.8674 14.5 14 14.5ZM12 0.5C5.659 0.5 0.5 5.659 0.5 12C0.5 18.341 5.659 23.5 12 23.5C18.341 23.5 23.5 18.341 23.5 12C23.5 5.659 18.341 0.5 12 0.5ZM12 22.5C6.21 22.5 1.5 17.79 1.5 12C1.5 6.21 6.21 1.5 12 1.5C17.79 1.5 22.5 6.21 22.5 12C22.5 17.79 17.79 22.5 12 22.5ZM19 13.5H17.5V12.5H18C18.1326 12.5 18.2598 12.4473 18.3536 12.3536C18.4473 12.2598 18.5 12.1326 18.5 12C18.5 11.8674 18.4473 11.7402 18.3536 11.6464C18.2598 11.5527 18.1326 11.5 18 11.5H17.5V10.5H19C19.1326 10.5 19.2598 10.4473 19.3536 10.3536C19.4473 10.2598 19.5 10.1326 19.5 10C19.5 9.86739 19.4473 9.74021 19.3536 9.64645C19.2598 9.55268 19.1326 9.5 19 9.5H17C16.8674 9.5 16.7402 9.55268 16.6464 9.64645C16.5527 9.74021 16.5 9.86739 16.5 10V14C16.5 14.1326 16.5527 14.2598 16.6464 14.3536C16.7402 14.4473 16.8674 14.5 17 14.5H19C19.1326 14.5 19.2598 14.4473 19.3536 14.3536C19.4473 14.2598 19.5 14.1326 19.5 14C19.5 13.8674 19.4473 13.7402 19.3536 13.6464C19.2598 13.5527 19.1326 13.5 19 13.5ZM5.968 14.176L7.468 10.176C7.51468 10.0519 7.51014 9.9143 7.45538 9.79352C7.42826 9.73372 7.38963 9.67985 7.3417 9.63498C7.29376 9.5901 7.23746 9.55511 7.176 9.532C7.05188 9.48532 6.9143 9.48986 6.79352 9.54462C6.67275 9.59938 6.57868 9.69988 6.532 9.824L5.5 12.576L4.468 9.824C4.42132 9.69988 4.32725 9.59938 4.20648 9.54462C4.0857 9.48986 3.94812 9.48532 3.824 9.532C3.69988 9.57868 3.59938 9.67275 3.54462 9.79352C3.48986 9.9143 3.48532 10.0519 3.532 10.176L5.032 14.176C5.0678 14.2712 5.13178 14.3532 5.21539 14.4111C5.29901 14.469 5.3983 14.5 5.5 14.5C5.6017 14.5 5.70099 14.469 5.78461 14.4111C5.86822 14.3532 5.9322 14.2712 5.968 14.176ZM17.438 17.156C16.7407 17.8984 15.8983 18.4896 14.963 18.8928C14.0277 19.296 13.0195 19.5027 12.001 19.5C10.9825 19.5029 9.97419 19.2964 9.03886 18.8931C8.10353 18.4899 7.26113 17.8986 6.564 17.156C6.51883 17.1083 6.4647 17.07 6.40473 17.0433C6.34475 17.0165 6.28009 17.0018 6.21444 17.0001C6.14878 16.9983 6.08343 17.0095 6.0221 17.033C5.96077 17.0565 5.90467 17.0918 5.857 17.137C5.80933 17.1822 5.77102 17.2363 5.74427 17.2963C5.71752 17.3563 5.70284 17.4209 5.70108 17.4866C5.69751 17.6192 5.74677 17.7477 5.838 17.844C7.462 19.557 9.651 20.5 12 20.5C14.349 20.5 16.538 19.557 18.164 17.844C18.255 17.7476 18.3041 17.6191 18.3006 17.4866C18.297 17.3541 18.2411 17.2284 18.145 17.137C18.0486 17.046 17.9201 16.9969 17.7876 17.0004C17.6551 17.004 17.5294 17.0599 17.438 17.156Z" fill="white" stroke="white" stroke-width="0.5"/>
</g>
<defs>
<clipPath id="clip0_8160_16103">
<rect width="24" height="24" fill="white"/>
</clipPath>
</defs>
</svg>
