<svg width="25" height="25" viewBox="0 0 25 25" fill="none" xmlns="http://www.w3.org/2000/svg">
<path d="M19.4896 7.51076C19.3928 7.41313 19.2776 7.33563 19.1506 7.28275C19.0237 7.22986 18.8876 7.20264 18.75 7.20264C18.6125 7.20264 18.4764 7.22986 18.3494 7.28275C18.2225 7.33563 18.1073 7.41313 18.0105 7.51076L10.25 15.2816L6.98963 12.0108C6.88909 11.9136 6.7704 11.8373 6.64034 11.786C6.51029 11.7348 6.37141 11.7096 6.23164 11.712C6.09186 11.7145 5.95394 11.7444 5.82573 11.8001C5.69752 11.8558 5.58155 11.9363 5.48442 12.0368C5.3873 12.1373 5.31093 12.256 5.25968 12.3861C5.20842 12.5161 5.18329 12.655 5.18571 12.7948C5.18812 12.9346 5.21805 13.0725 5.27377 13.2007C5.32949 13.3289 5.40992 13.4449 5.51047 13.542L9.51047 17.542C9.6073 17.6396 9.72251 17.7171 9.84945 17.77C9.97639 17.8229 10.1125 17.8501 10.25 17.8501C10.3876 17.8501 10.5237 17.8229 10.6507 17.77C10.7776 17.7171 10.8928 17.6396 10.9896 17.542L19.4896 9.04201C19.5954 8.94447 19.6797 8.82608 19.7375 8.69431C19.7952 8.56254 19.825 8.42024 19.825 8.27639C19.825 8.13253 19.7952 7.99023 19.7375 7.85846C19.6797 7.72669 19.5954 7.6083 19.4896 7.51076Z" fill="white"/>
</svg>
