<svg width="24" height="24" viewBox="0 0 24 24" fill="none" xmlns="http://www.w3.org/2000/svg">
<path d="M6.17595 6.1173C6.45672 6.1173 6.726 6.00577 6.92453 5.80723C7.12307 5.60869 7.2346 5.33942 7.2346 5.05865C7.2346 4.77788 7.12307 4.50861 6.92453 4.31007C6.726 4.11154 6.45672 4 6.17595 4H4.05865C3.77788 4 3.50861 4.11154 3.31007 4.31007C3.11154 4.50861 3 4.77788 3 5.05865V19.8798C3 20.1605 3.11154 20.4298 3.31007 20.6283C3.50861 20.8269 3.77788 20.9384 4.05865 20.9384H6.17595C6.45672 20.9384 6.726 20.8269 6.92453 20.6283C7.12307 20.4298 7.2346 20.1605 7.2346 19.8798C7.2346 19.599 7.12307 19.3297 6.92453 19.1312C6.726 18.9326 6.45672 18.8211 6.17595 18.8211H5.1173V6.1173H6.17595ZM20.8065 11.8552L17.8211 7.62059C17.6592 7.39235 17.4135 7.23751 17.1378 7.18989C16.862 7.14228 16.5787 7.20578 16.3496 7.36651C16.2351 7.44674 16.1376 7.54886 16.0628 7.66696C15.988 7.78506 15.9373 7.91682 15.9137 8.05462C15.8901 8.19241 15.894 8.33353 15.9252 8.46981C15.9564 8.60609 16.0143 8.73484 16.0955 8.84862L17.9164 11.4106H9.3519C9.07113 11.4106 8.80186 11.5221 8.60333 11.7206C8.40479 11.9192 8.29325 12.1884 8.29325 12.4692C8.29325 12.75 8.40479 13.0192 8.60333 13.2178C8.80186 13.4163 9.07113 13.5279 9.3519 13.5279H17.8211L15.9155 16.0686C15.8321 16.1798 15.7714 16.3064 15.7369 16.4411C15.7024 16.5757 15.6948 16.7159 15.7144 16.8535C15.7341 16.9912 15.7807 17.1236 15.8515 17.2432C15.9224 17.3628 16.0161 17.4673 16.1273 17.5507C16.3105 17.6882 16.5334 17.7625 16.7625 17.7625C16.9268 17.7625 17.0889 17.7242 17.2359 17.6507C17.3829 17.5772 17.5108 17.4705 17.6094 17.339L20.7853 13.1044C20.9209 12.9253 20.996 12.7078 20.9998 12.4832C21.0037 12.2587 20.9359 12.0387 20.8065 11.8552Z" fill="#75839D"/>
</svg>
