<svg width="24" height="24" viewBox="0 0 24 24" fill="none" xmlns="http://www.w3.org/2000/svg">
<path d="M6 11.9999V9.99994H18V11.9999M3.02868 10L10.225 14.8166C10.8665 15.2443 11.1872 15.4581 11.5339 15.5412C11.8403 15.6146 12.1597 15.6146 12.4661 15.5412C12.8128 15.4581 13.1335 15.2443 13.775 14.8166L20.9713 9.99994M9.4472 4.60313L5.2472 7.24078C4.42682 7.756 4.01662 8.0136 3.7191 8.36184C3.45577 8.67006 3.25764 9.02845 3.13667 9.41538C3 9.85253 3 10.3369 3 11.3057V15.1999C3 16.8801 3 17.7202 3.32698 18.3619C3.6146 18.9264 4.07354 19.3853 4.63803 19.673C5.27976 19.9999 6.11984 19.9999 7.8 19.9999H16.2C17.8802 19.9999 18.7202 19.9999 19.362 19.673C19.9265 19.3853 20.3854 18.9264 20.673 18.3619C21 17.7202 21 16.8801 21 15.1999V11.3057C21 10.3369 21 9.85253 20.8633 9.41538C20.7424 9.02845 20.5442 8.67006 20.2809 8.36184C19.9834 8.0136 19.5732 7.756 18.7528 7.24078L14.5528 4.60313C13.6269 4.02168 13.164 3.73096 12.6673 3.61763C12.2281 3.51743 11.7719 3.51743 11.3327 3.61763C10.836 3.73096 10.3731 4.02168 9.4472 4.60313Z" stroke="#757E8A" stroke-width="2" stroke-linecap="round" stroke-linejoin="round"/>
</svg>
