<svg width="24" height="24" viewBox="0 0 24 24" fill="none" xmlns="http://www.w3.org/2000/svg">
<path d="M19.8989 12.6599C19.7386 12.4774 19.6502 12.2428 19.6502 11.9999C19.6502 11.757 19.7386 11.5224 19.8989 11.3399L21.1789 9.89989C21.32 9.74256 21.4076 9.5446 21.4291 9.3344C21.4507 9.12421 21.4051 8.91258 21.2989 8.72989L19.2989 5.2699C19.1938 5.08742 19.0338 4.94277 18.8417 4.85658C18.6495 4.77039 18.4351 4.74705 18.2289 4.7899L16.3489 5.1699C16.1097 5.21932 15.8607 5.17948 15.6488 5.0579C15.4369 4.93631 15.2769 4.74138 15.1989 4.5099L14.5889 2.6799C14.5218 2.48127 14.394 2.30876 14.2235 2.18674C14.0531 2.06471 13.8486 1.99935 13.6389 1.9999H9.63892C9.42085 1.98851 9.20505 2.04882 9.02448 2.17161C8.84391 2.2944 8.7085 2.47291 8.63892 2.6799L8.07892 4.5099C8.00092 4.74138 7.84089 4.93631 7.62903 5.0579C7.41717 5.17948 7.16814 5.21932 6.92892 5.1699L4.99892 4.7899C4.80347 4.76228 4.60422 4.79312 4.42627 4.87853C4.24831 4.96395 4.09962 5.10012 3.99892 5.2699L1.99892 8.72989C1.89008 8.91054 1.84114 9.12098 1.8591 9.33112C1.87706 9.54126 1.961 9.74034 2.09892 9.89989L3.36892 11.3399C3.52924 11.5224 3.61765 11.757 3.61765 11.9999C3.61765 12.2428 3.52924 12.4774 3.36892 12.6599L2.09892 14.0999C1.961 14.2595 1.87706 14.4585 1.8591 14.6687C1.84114 14.8788 1.89008 15.0892 1.99892 15.2699L3.99892 18.7299C4.10402 18.9124 4.26404 19.057 4.45617 19.1432C4.6483 19.2294 4.86274 19.2527 5.06892 19.2099L6.94892 18.8299C7.18814 18.7805 7.43717 18.8203 7.64903 18.9419C7.86089 19.0635 8.02092 19.2584 8.09892 19.4899L8.70892 21.3199C8.7785 21.5269 8.91392 21.7054 9.09449 21.8282C9.27506 21.951 9.49085 22.0113 9.70892 21.9999H13.7089C13.9186 22.0004 14.1231 21.9351 14.2935 21.8131C14.464 21.691 14.5918 21.5185 14.6589 21.3199L15.2689 19.4899C15.3469 19.2584 15.5069 19.0635 15.7188 18.9419C15.9307 18.8203 16.1797 18.7805 16.4189 18.8299L18.2989 19.2099C18.5051 19.2527 18.7195 19.2294 18.9117 19.1432C19.1038 19.057 19.2638 18.9124 19.3689 18.7299L21.3689 15.2699C21.4751 15.0872 21.5207 14.8756 21.4991 14.6654C21.4776 14.4552 21.39 14.2572 21.2489 14.0999L19.8989 12.6599ZM18.4089 13.9999L19.2089 14.8999L17.9289 17.1199L16.7489 16.8799C16.0287 16.7327 15.2795 16.855 14.6435 17.2237C14.0075 17.5924 13.5291 18.1817 13.2989 18.8799L12.9189 19.9999H10.3589L9.99892 18.8599C9.76877 18.1617 9.2903 17.5724 8.65432 17.2037C8.01835 16.835 7.26914 16.7127 6.54892 16.8599L5.36892 17.0999L4.06892 14.8899L4.86892 13.9899C5.36087 13.4399 5.63285 12.7278 5.63285 11.9899C5.63285 11.252 5.36087 10.5399 4.86892 9.98989L4.06892 9.0899L5.34892 6.88989L6.52892 7.1299C7.24914 7.27712 7.99835 7.15478 8.63432 6.78609C9.2703 6.41741 9.74877 5.82805 9.97892 5.1299L10.3589 3.9999H12.9189L13.2989 5.13989C13.5291 5.83805 14.0075 6.42741 14.6435 6.79609C15.2795 7.16478 16.0287 7.28712 16.7489 7.13989L17.9289 6.8999L19.2089 9.11989L18.4089 10.0199C17.9225 10.5687 17.6539 11.2766 17.6539 12.0099C17.6539 12.7432 17.9225 13.4511 18.4089 13.9999ZM11.6389 7.9999C10.8478 7.9999 10.0744 8.23449 9.41664 8.67402C8.75884 9.11354 8.24615 9.73826 7.9434 10.4692C7.64065 11.2001 7.56144 12.0043 7.71578 12.7803C7.87012 13.5562 8.25108 14.2689 8.81049 14.8283C9.3699 15.3877 10.0826 15.7687 10.8586 15.923C11.6345 16.0774 12.4387 15.9982 13.1697 15.6954C13.9006 15.3927 14.5253 14.88 14.9648 14.2222C15.4043 13.5644 15.6389 12.791 15.6389 11.9999C15.6389 10.939 15.2175 9.92161 14.4673 9.17147C13.7172 8.42132 12.6998 7.9999 11.6389 7.9999ZM11.6389 13.9999C11.2434 13.9999 10.8567 13.8826 10.5278 13.6628C10.1989 13.4431 9.94254 13.1307 9.79116 12.7653C9.63979 12.3998 9.60018 11.9977 9.67735 11.6097C9.75452 11.2218 9.945 10.8654 10.2247 10.5857C10.5044 10.306 10.8608 10.1155 11.2487 10.0383C11.6367 9.96115 12.0388 10.0008 12.4043 10.1521C12.7697 10.3035 13.0821 10.5599 13.3019 10.8888C13.5216 11.2177 13.6389 11.6043 13.6389 11.9999C13.6389 12.5303 13.4282 13.039 13.0531 13.4141C12.6781 13.7892 12.1694 13.9999 11.6389 13.9999Z" fill="#757E8A"/>
</svg>
