<svg width="24" height="24" viewBox="0 0 24 24" fill="none" xmlns="http://www.w3.org/2000/svg">
<path d="M21 15.8V10.2C21 9.0799 21 8.51984 20.782 8.09202C20.5903 7.71569 20.2843 7.40973 19.908 7.21799C19.4802 7 18.9201 7 17.8 7H14.3255C13.8363 7 13.5917 7 13.3615 6.94474C13.1575 6.89575 12.9624 6.81494 12.7834 6.70528C12.5816 6.5816 12.4086 6.40865 12.0627 6.06274L11.9373 5.93726C11.5914 5.59135 11.4184 5.4184 11.2166 5.29472C11.0376 5.18506 10.8425 5.10425 10.6385 5.05526C10.4083 5 10.1637 5 9.67452 5H6.2C5.0799 5 4.51984 5 4.09202 5.21799C3.71569 5.40973 3.40973 5.71569 3.21799 6.09202C3 6.51984 3 7.0799 3 8.2V15.8C3 16.9201 3 17.4802 3.21799 17.908C3.40973 18.2843 3.71569 18.5903 4.09202 18.782C4.51984 19 5.0799 19 6.2 19H17.8C18.9201 19 19.4802 19 19.908 18.782C20.2843 18.5903 20.5903 18.2843 20.782 17.908C21 17.4802 21 16.9201 21 15.8Z" stroke="#757E8A" stroke-width="2" stroke-linecap="round" stroke-linejoin="round"/>
<path d="M14.5275 13.5981L15 14.3407C14.9439 14.4388 14.8811 14.535 14.8117 14.6291C14.7422 14.7232 14.6679 14.8126 14.5891 14.8973L13.6596 14.8047C13.411 14.987 13.124 15.129 12.8112 15.2197M11.1957 10.78L11.6301 10.0183C11.7526 10.0062 11.8772 10 12.0033 10C12.1295 10 12.254 10.0062 12.3766 10.0183L12.8109 10.78C13.1186 10.8691 13.3988 11.0059 13.6446 11.1836L14.5889 11.0889C14.6676 11.1736 14.742 11.263 14.8114 11.3571C14.8809 11.4511 14.9436 11.5474 14.9998 11.6454L14.5261 12.3899M14.5261 12.3911C14.5847 12.5852 14.616 12.7894 14.616 13.0001C14.616 13.2072 14.5858 13.408 14.5291 13.5992M12.8112 15.2197L12.3766 15.9817C12.2541 15.9938 12.1296 16 12.0034 16C11.8773 16 11.7527 15.9938 11.6302 15.9817L11.1945 15.2194C10.8815 15.1285 10.5944 14.9862 10.3458 14.8037L9.41091 14.8972C9.33214 14.8125 9.25778 14.723 9.18834 14.629C9.11889 14.5349 9.05615 14.4386 9 14.3406L9.47521 13.5938C9.41985 13.4047 9.3908 13.2046 9.3908 13.0001C9.3908 12.7916 9.4214 12.5896 9.4788 12.3973L9.00014 11.6453C9.05629 11.5473 9.11903 11.451 9.18848 11.357C9.25792 11.2629 9.33228 11.1735 9.41105 11.0888L10.3646 11.1844C10.6103 11.0069 10.8897 10.8689 11.1972 10.7799M12.8112 15.2197L12.8116 15.2189" stroke="#757E8A" stroke-width="2" stroke-linecap="round" stroke-linejoin="round"/>
</svg>
