<?xml version="1.0" encoding="utf-8"?>
<!-- Generator: Adobe Illustrator 25.3.1, SVG Export Plug-In . SVG Version: 6.00 Build 0)  -->
<svg version="1.1" id="Layer_1" xmlns="http://www.w3.org/2000/svg" xmlns:xlink="http://www.w3.org/1999/xlink" x="0px" y="0px"
	 width="769.62px" height="141.09px" viewBox="0 0 769.62 141.09" style="enable-background:new 0 0 769.62 141.09;"
	 xml:space="preserve">
<style type="text/css">
	.st0{fill:url(#SVGID_1_);}
	.st1{fill:url(#SVGID_2_);}
	.st2{fill:url(#SVGID_3_);}
	.st3{fill:url(#SVGID_4_);}
	.st4{fill:#0061FF;}
</style>
<g>
	<path d="M194.97,27.91h-25.58c-4.66,0-8.53,3.86-8.53,8.53v68.21c0,4.66,3.86,8.53,8.53,8.53h25.58
		c23.58,0,42.63-19.05,42.63-42.63C237.6,46.97,218.55,27.91,194.97,27.91z M194.97,97.65h-18.59V43.43h18.59
		c14.95,0,27.11,12.16,27.11,27.11S209.92,97.65,194.97,97.65z"/>
	<path d="M281.45,51.17c-5.69,0-11.02,1.58-15.5,4.24V35.67c0-4.24-3.51-7.75-7.75-7.75s-7.75,3.51-7.75,7.75v69.76
		c0,4.24,3.51,7.75,7.75,7.75s7.75-3.51,7.75-7.75V82.18c0-8.6,6.9-15.5,15.5-15.5c8.6,0,15.5,6.9,15.5,15.5v23.25
		c0,4.24,3.51,7.75,7.75,7.75s7.75-3.51,7.75-7.75V82.17C312.45,65.1,298.52,51.17,281.45,51.17z"/>
	<path d="M335.22,51.18c-4.24,0-7.75,3.51-7.75,7.75v46.5c0,4.24,3.51,7.75,7.75,7.75s7.75-3.51,7.75-7.75v-46.5
		C342.97,54.69,339.46,51.18,335.22,51.18z"/>
	<path d="M437.44,27.92c-4.24,0-7.75,3.51-7.75,7.75v51.11L408.01,65.1c-1.45-1.57-3.51-2.3-5.45-2.3s-4,0.73-5.45,2.3l-21.68,21.68
		V35.67c0-4.24-3.51-7.75-7.75-7.75s-7.75,3.51-7.75,7.75v69.76c0,4.24,3.51,7.75,7.75,7.75c2.06,0,4-0.85,5.45-2.3l29.42-29.43
		l29.43,29.43c1.45,1.45,3.39,2.3,5.45,2.3c4.24,0,7.75-3.51,7.75-7.75h0.01V35.67C445.19,31.43,441.68,27.92,437.44,27.92z"/>
	<path d="M469.89,51.18c-4.24,0-7.75,3.51-7.75,7.75v46.5c0,4.24,3.51,7.75,7.75,7.75s7.75-3.51,7.75-7.75v-46.5
		C477.64,54.69,474.13,51.18,469.89,51.18z"/>
	<path d="M527.54,74.42h-15.5c-2.19,0-3.88-1.69-3.88-3.88s1.7-3.88,3.88-3.88h23.25c4.24,0,7.75-3.51,7.75-7.75
		s-3.51-7.75-7.75-7.75h-23.25c-10.66,0-19.38,8.72-19.38,19.38s8.72,19.38,19.38,19.38h15.5c2.18,0,3.87,1.69,3.87,3.88
		s-1.69,3.88-3.87,3.88h-27.13c-4.24,0-7.75,3.51-7.75,7.75c0,4.24,3.51,7.75,7.75,7.75h27.13c10.65,0,19.37-8.72,19.37-19.38
		C546.91,83.14,538.2,74.42,527.54,74.42z"/>
	<path d="M589.06,51.18c-17.08,0-31,13.93-31,31c0,17.07,13.92,31,31,31h7.74c4.24,0,7.75-3.51,7.75-7.75
		c0-4.24-3.51-7.75-7.75-7.75h-7.75c-5.81,0-10.77-3.03-13.44-7.75h36.7c4.24,0,7.75-3.51,7.75-7.75
		C620.06,65.11,606.13,51.18,589.06,51.18z M575.61,74.42c2.67-4.6,7.63-7.75,13.44-7.75c5.69,0,10.78,3.15,13.44,7.75H575.61z"/>
	
		<linearGradient id="SVGID_1_" gradientUnits="userSpaceOnUse" x1="326.5" y1="107.36" x2="343.94" y2="107.36" gradientTransform="matrix(1 0 0 -1 0 144)">
		<stop  offset="0" style="stop-color:#0068FF"/>
		<stop  offset="1" style="stop-color:#0000E1"/>
	</linearGradient>
	<circle class="st0" cx="335.22" cy="36.64" r="8.72"/>
	
		<linearGradient id="SVGID_2_" gradientUnits="userSpaceOnUse" x1="461.17" y1="107.36" x2="478.61" y2="107.36" gradientTransform="matrix(1 0 0 -1 0 144)">
		<stop  offset="0" style="stop-color:#FF9852"/>
		<stop  offset="0.2774" style="stop-color:#FF8A3A"/>
		<stop  offset="1" style="stop-color:#FF6700"/>
	</linearGradient>
	<circle class="st1" cx="469.89" cy="36.64" r="8.72"/>
	
		<linearGradient id="SVGID_3_" gradientUnits="userSpaceOnUse" x1="87.7456" y1="100.6406" x2="13.3002" y2="26.1952" gradientTransform="matrix(1 0 0 -1 0 144)">
		<stop  offset="0" style="stop-color:#0068FF"/>
		<stop  offset="1" style="stop-color:#0000E1"/>
	</linearGradient>
	<path class="st2" d="M97.59,1.29H9.9c-4.91,0-8.89,3.98-8.89,8.89v96.88c0,3.6,2.17,6.84,5.49,8.21c3.31,1.37,7.14,0.61,9.69-1.93
		L59,70.53c3.47-3.47,3.47-9.1,0-12.57c-3.47-3.47-9.1-3.47-12.57,0L18.79,85.6V19.07H97.6c13.31,0,24.13,10.83,24.13,24.13v54.67
		c0,13.31-10.83,24.13-24.13,24.13H55.2l27.64-27.64c3.47-3.47,3.47-9.1,0-12.57c-3.47-3.47-9.1-3.47-12.57,0l-42.82,42.82
		c-2.54,2.54-3.3,6.37-1.93,9.69c1.38,3.32,4.62,5.49,8.21,5.49h63.85c23.11,0,41.91-18.8,41.91-41.91V43.21
		C139.51,20.1,120.71,1.29,97.59,1.29z"/>
	
		<linearGradient id="SVGID_4_" gradientUnits="userSpaceOnUse" x1="105.315" y1="108.515" x2="78.155" y2="81.3551" gradientTransform="matrix(1 0 0 -1 0 144)">
		<stop  offset="0" style="stop-color:#FF9852"/>
		<stop  offset="0.2774" style="stop-color:#FF8A3A"/>
		<stop  offset="1" style="stop-color:#FF6700"/>
	</linearGradient>
	<path class="st3" d="M97.22,76.31c4.91,0,8.89-3.98,8.89-8.89V43.58c0-4.91-3.98-8.89-8.89-8.89H73.38c-4.91,0-8.89,3.98-8.89,8.89
		c0,4.91,3.98,8.89,8.89,8.89h14.95v14.95C88.33,72.33,92.31,76.31,97.22,76.31z"/>
	<path class="st4" d="M663.05,93.56c1.77-0.59,3.24-1.77,4.27-3.1c1.03-1.47,1.62-3.09,1.62-5.16c0-2.95-1.03-5.46-3.09-7.08
		c-2.21-1.62-5.15-2.51-8.98-2.51h-12.52c-1.92,0-2.95,1.03-2.95,2.95v31.27c0,1.92,1.04,2.95,2.95,2.95v-0.14h12.96
		c3.83,0,6.92-0.89,9.13-2.66c2.21-1.77,3.39-4.28,3.39-7.67c0-2.36-0.59-4.27-1.77-5.75S665.11,94.15,663.05,93.56z M646.56,80.28
		h9.42c5.16,0,7.66,1.92,7.66,5.9c0,3.83-2.65,5.9-7.66,5.9h-9.42V80.28z M656.72,108.6h-10.16V96.2h10.16
		c5.16,0,7.66,2.07,7.66,6.2S661.87,108.6,656.72,108.6z"/>
	<path class="st4" d="M697.42,108.44h-16.93V96.2h15.76c1.47,0,2.21-0.73,2.21-2.21c0-1.47-0.74-2.21-2.21-2.21h-15.76V80.13h16.79
		c1.47,0,2.21-0.73,2.21-2.21c0-1.47-0.74-2.21-2.21-2.21h-19.14c-1.92,0-2.95,1.03-2.95,2.95v31.27c0,1.92,1.04,2.95,2.95,2.95
		c0,0,19.29,0,19.28-0.02c1.47,0,2.21-0.73,2.21-2.21C699.63,109.18,698.89,108.44,697.42,108.44z"/>
	<path class="st4" d="M736.95,78.22c0-1.47-0.88-2.21-2.5-2.21h-27.68c-1.62,0-2.36,0.73-2.36,2.21c0,1.47,0.74,2.21,2.36,2.21
		h11.04v29.95c0,1.77,0.88,2.8,2.65,2.8c1.76,0,2.65-0.89,2.8-2.66V80.43h11.19C736.21,80.43,736.95,79.84,736.95,78.22z"/>
	<path class="st4" d="M768.21,109.64l-14.28-32.01c-0.3-0.74-0.74-1.47-1.33-1.77c-0.59-0.44-1.18-0.59-1.77-0.59
		s-1.18,0.29-1.77,0.59c-0.59,0.44-1.04,1.03-1.33,1.77l-14.28,32.01c-0.44,1.03-0.59,1.78-0.15,2.51s1.18,1.03,2.21,1.03
		c0.73,0,1.32-0.15,1.76-0.59c0.44-0.29,0.89-0.88,1.18-1.77l2.95-6.93h18.86l3.09,6.93c0.3,0.74,0.74,1.33,1.18,1.77
		s1.03,0.59,1.77,0.59c1.03,0,1.77-0.29,2.06-1.03C768.8,111.41,768.65,110.67,768.21,109.64z M743.32,99.45l7.36-17.55l7.66,17.55
		H743.32z"/>
</g>
</svg>
